solid OpenSCAD_Model
  facet normal 0 0 1
    outer loop
      vertex -14.6722 3.11867 2
      vertex -15 0 2
      vertex -14.6722 -3.11867 2
    endloop
  endfacet
  facet normal 0 0 1
    outer loop
      vertex -12.1353 -8.81678 2
      vertex -14.6722 3.11867 2
      vertex -13.7032 -6.10105 2
    endloop
  endfacet
  facet normal 0 0 1
    outer loop
      vertex -13.7032 -6.10105 2
      vertex -14.6722 3.11867 2
      vertex -14.6722 -3.11867 2
    endloop
  endfacet
  facet normal 0 0 1
    outer loop
      vertex -10.037 -11.1472 2
      vertex -14.6722 3.11867 2
      vertex -12.1353 -8.81678 2
    endloop
  endfacet
  facet normal 0 0 1
    outer loop
      vertex -7.5 -12.9904 2
      vertex -14.6722 3.11867 2
      vertex -10.037 -11.1472 2
    endloop
  endfacet
  facet normal 0 0 1
    outer loop
      vertex -4.63525 -14.2658 2
      vertex -14.6722 3.11867 2
      vertex -7.5 -12.9904 2
    endloop
  endfacet
  facet normal 0 0 1
    outer loop
      vertex -1.56793 -14.9178 2
      vertex -14.6722 3.11867 2
      vertex -4.63525 -14.2658 2
    endloop
  endfacet
  facet normal 0 0 1
    outer loop
      vertex -8.00927 -5.81907 2
      vertex -14.6722 3.11867 2
      vertex -1.56793 -14.9178 2
    endloop
  endfacet
  facet normal 0 0 1
    outer loop
      vertex 8.00927 -5.81907 2
      vertex 6.62439 -7.35713 2
      vertex 12.1353 -8.81678 2
    endloop
  endfacet
  facet normal 0 0 1
    outer loop
      vertex -9.68366 2.05833 2
      vertex -9.0441 4.02669 2
      vertex -14.6722 3.11867 2
    endloop
  endfacet
  facet normal 0 0 1
    outer loop
      vertex 6.62439 -7.35713 2
      vertex 4.95 -8.57365 2
      vertex 10.037 -11.1472 2
    endloop
  endfacet
  facet normal 0 0 1
    outer loop
      vertex 8.00927 5.81907 2
      vertex 9.0441 4.02669 2
      vertex 13.7032 6.10105 2
    endloop
  endfacet
  facet normal 0 0 1
    outer loop
      vertex -1.03483 9.84577 2
      vertex 1.03483 9.84577 2
      vertex 7.5 12.9904 2
    endloop
  endfacet
  facet normal 0 0 1
    outer loop
      vertex 3.05927 9.41546 2
      vertex 4.95 8.57365 2
      vertex 10.037 11.1472 2
    endloop
  endfacet
  facet normal 0 0 1
    outer loop
      vertex 1.56793 14.9178 2
      vertex -14.6722 3.11867 2
      vertex 4.63525 14.2658 2
    endloop
  endfacet
  facet normal 0 0 1
    outer loop
      vertex -1.56793 14.9178 2
      vertex -14.6722 3.11867 2
      vertex 1.56793 14.9178 2
    endloop
  endfacet
  facet normal 0 0 1
    outer loop
      vertex -4.63525 14.2658 2
      vertex -14.6722 3.11867 2
      vertex -1.56793 14.9178 2
    endloop
  endfacet
  facet normal 0 0 1
    outer loop
      vertex -7.5 12.9904 2
      vertex -14.6722 3.11867 2
      vertex -4.63525 14.2658 2
    endloop
  endfacet
  facet normal 0 0 1
    outer loop
      vertex -10.037 11.1472 2
      vertex -14.6722 3.11867 2
      vertex -7.5 12.9904 2
    endloop
  endfacet
  facet normal 0 0 1
    outer loop
      vertex -12.1353 8.81678 2
      vertex -14.6722 3.11867 2
      vertex -10.037 11.1472 2
    endloop
  endfacet
  facet normal 0 0 1
    outer loop
      vertex -13.7032 6.10105 2
      vertex -14.6722 3.11867 2
      vertex -12.1353 8.81678 2
    endloop
  endfacet
  facet normal 0 0 1
    outer loop
      vertex -8.00927 -5.81907 2
      vertex -9.0441 -4.02669 2
      vertex -14.6722 3.11867 2
    endloop
  endfacet
  facet normal 0 0 1
    outer loop
      vertex 9.0441 -4.02669 2
      vertex 8.00927 -5.81907 2
      vertex 13.7032 -6.10105 2
    endloop
  endfacet
  facet normal 0 0 1
    outer loop
      vertex 9.0441 4.02669 2
      vertex 9.68366 2.05833 2
      vertex 14.6722 3.11867 2
    endloop
  endfacet
  facet normal 0 0 1
    outer loop
      vertex -4.95 8.57365 2
      vertex -3.05927 9.41546 2
      vertex 4.63525 14.2658 2
    endloop
  endfacet
  facet normal 0 0 1
    outer loop
      vertex 4.95 8.57365 2
      vertex 6.62439 7.35713 2
      vertex 12.1353 8.81678 2
    endloop
  endfacet
  facet normal 0 0 1
    outer loop
      vertex -4.95 8.57365 2
      vertex -14.6722 3.11867 2
      vertex -6.62439 7.35713 2
    endloop
  endfacet
  facet normal 0 0 1
    outer loop
      vertex 4.63525 14.2658 2
      vertex -14.6722 3.11867 2
      vertex -4.95 8.57365 2
    endloop
  endfacet
  facet normal 0 0 1
    outer loop
      vertex 4.63525 14.2658 2
      vertex -3.05927 9.41546 2
      vertex 7.5 12.9904 2
    endloop
  endfacet
  facet normal 0 0 1
    outer loop
      vertex -3.05927 9.41546 2
      vertex -1.03483 9.84577 2
      vertex 7.5 12.9904 2
    endloop
  endfacet
  facet normal 0 0 1
    outer loop
      vertex 7.5 12.9904 2
      vertex 1.03483 9.84577 2
      vertex 10.037 11.1472 2
    endloop
  endfacet
  facet normal 0 0 1
    outer loop
      vertex 1.03483 9.84577 2
      vertex 3.05927 9.41546 2
      vertex 10.037 11.1472 2
    endloop
  endfacet
  facet normal 0 0 1
    outer loop
      vertex 10.037 11.1472 2
      vertex 4.95 8.57365 2
      vertex 12.1353 8.81678 2
    endloop
  endfacet
  facet normal 0 0 1
    outer loop
      vertex -8.00927 5.81907 2
      vertex -6.62439 7.35713 2
      vertex -14.6722 3.11867 2
    endloop
  endfacet
  facet normal 0 0 1
    outer loop
      vertex 12.1353 8.81678 2
      vertex 6.62439 7.35713 2
      vertex 13.7032 6.10105 2
    endloop
  endfacet
  facet normal 0 0 1
    outer loop
      vertex 6.62439 7.35713 2
      vertex 8.00927 5.81907 2
      vertex 13.7032 6.10105 2
    endloop
  endfacet
  facet normal 0 0 1
    outer loop
      vertex 13.7032 6.10105 2
      vertex 9.0441 4.02669 2
      vertex 14.6722 3.11867 2
    endloop
  endfacet
  facet normal 0 0 1
    outer loop
      vertex 9.68366 2.05833 2
      vertex 9.9 0 2
      vertex 15 0 2
    endloop
  endfacet
  facet normal 0 0 1
    outer loop
      vertex 14.6722 3.11867 2
      vertex 9.68366 2.05833 2
      vertex 15 0 2
    endloop
  endfacet
  facet normal 0 0 1
    outer loop
      vertex -9.0441 4.02669 2
      vertex -8.00927 5.81907 2
      vertex -14.6722 3.11867 2
    endloop
  endfacet
  facet normal 0 0 1
    outer loop
      vertex 15 0 2
      vertex 9.9 0 2
      vertex 14.6722 -3.11867 2
    endloop
  endfacet
  facet normal 0 0 1
    outer loop
      vertex 14.6722 -3.11867 2
      vertex 9.68366 -2.05833 2
      vertex 13.7032 -6.10105 2
    endloop
  endfacet
  facet normal 0 0 1
    outer loop
      vertex 9.68366 -2.05833 2
      vertex 9.0441 -4.02669 2
      vertex 13.7032 -6.10105 2
    endloop
  endfacet
  facet normal 0 0 1
    outer loop
      vertex 13.7032 -6.10105 2
      vertex 8.00927 -5.81907 2
      vertex 12.1353 -8.81678 2
    endloop
  endfacet
  facet normal 0 0 1
    outer loop
      vertex 9.9 0 2
      vertex 9.68366 -2.05833 2
      vertex 14.6722 -3.11867 2
    endloop
  endfacet
  facet normal 0 0 1
    outer loop
      vertex 12.1353 -8.81678 2
      vertex 6.62439 -7.35713 2
      vertex 10.037 -11.1472 2
    endloop
  endfacet
  facet normal 0 0 1
    outer loop
      vertex 10.037 -11.1472 2
      vertex 4.95 -8.57365 2
      vertex 7.5 -12.9904 2
    endloop
  endfacet
  facet normal 0 0 1
    outer loop
      vertex 4.95 -8.57365 2
      vertex 3.05927 -9.41546 2
      vertex 7.5 -12.9904 2
    endloop
  endfacet
  facet normal 0 0 1
    outer loop
      vertex 7.5 -12.9904 2
      vertex 1.03483 -9.84577 2
      vertex 4.63525 -14.2658 2
    endloop
  endfacet
  facet normal 0 0 1
    outer loop
      vertex 4.63525 -14.2658 2
      vertex -1.03483 -9.84577 2
      vertex 1.56793 -14.9178 2
    endloop
  endfacet
  facet normal 0 0 1
    outer loop
      vertex -1.03483 -9.84577 2
      vertex -3.05927 -9.41546 2
      vertex 1.56793 -14.9178 2
    endloop
  endfacet
  facet normal 0 0 1
    outer loop
      vertex 1.56793 -14.9178 2
      vertex -4.95 -8.57365 2
      vertex -1.56793 -14.9178 2
    endloop
  endfacet
  facet normal 0 0 1
    outer loop
      vertex -4.95 -8.57365 2
      vertex -6.62439 -7.35713 2
      vertex -1.56793 -14.9178 2
    endloop
  endfacet
  facet normal 0 0 1
    outer loop
      vertex -6.62439 -7.35713 2
      vertex -8.00927 -5.81907 2
      vertex -1.56793 -14.9178 2
    endloop
  endfacet
  facet normal 0 0 1
    outer loop
      vertex -3.05927 -9.41546 2
      vertex -4.95 -8.57365 2
      vertex 1.56793 -14.9178 2
    endloop
  endfacet
  facet normal 0 0 1
    outer loop
      vertex -9.0441 -4.02669 2
      vertex -9.68366 -2.05833 2
      vertex -14.6722 3.11867 2
    endloop
  endfacet
  facet normal 0 0 1
    outer loop
      vertex -9.68366 -2.05833 2
      vertex -9.9 0 2
      vertex -14.6722 3.11867 2
    endloop
  endfacet
  facet normal 0 0 1
    outer loop
      vertex 1.03483 -9.84577 2
      vertex -1.03483 -9.84577 2
      vertex 4.63525 -14.2658 2
    endloop
  endfacet
  facet normal 0 0 1
    outer loop
      vertex 3.05927 -9.41546 2
      vertex 1.03483 -9.84577 2
      vertex 7.5 -12.9904 2
    endloop
  endfacet
  facet normal 0 0 1
    outer loop
      vertex -9.9 0 2
      vertex -9.68366 2.05833 2
      vertex -14.6722 3.11867 2
    endloop
  endfacet
  facet normal -0.705162 -0.0741155 -0.705162
    outer loop
      vertex -14.6722 -3.11867 2
      vertex -15 0 2
      vertex -12.7159 -2.70285 0
    endloop
  endfacet
  facet normal -0.705162 -0.0741155 -0.705162
    outer loop
      vertex -12.7159 -2.70285 0
      vertex -15 0 2
      vertex -13 0 0
    endloop
  endfacet
  facet normal -0.705162 0.0741155 -0.705162
    outer loop
      vertex -13 0 0
      vertex -15 0 2
      vertex -14.6722 3.11867 2
    endloop
  endfacet
  facet normal -0.705162 0.0741155 -0.705162
    outer loop
      vertex -13 0 0
      vertex -14.6722 3.11867 2
      vertex -12.7159 2.70285 0
    endloop
  endfacet
  facet normal -0.674343 0.219107 -0.705162
    outer loop
      vertex -12.7159 2.70285 0
      vertex -14.6722 3.11867 2
      vertex -13.7032 6.10105 2
    endloop
  endfacet
  facet normal -0.674343 0.219107 -0.705162
    outer loop
      vertex -12.7159 2.70285 0
      vertex -13.7032 6.10105 2
      vertex -11.8761 5.28758 0
    endloop
  endfacet
  facet normal -0.614052 0.354523 -0.705162
    outer loop
      vertex -11.8761 5.28758 0
      vertex -13.7032 6.10105 2
      vertex -12.1353 8.81678 2
    endloop
  endfacet
  facet normal -0.614052 0.354523 -0.705162
    outer loop
      vertex -11.8761 5.28758 0
      vertex -12.1353 8.81678 2
      vertex -10.5172 7.64121 0
    endloop
  endfacet
  facet normal -0.526924 0.474445 -0.705162
    outer loop
      vertex -10.5172 7.64121 0
      vertex -12.1353 8.81678 2
      vertex -10.037 11.1472 2
    endloop
  endfacet
  facet normal -0.526924 0.474445 -0.705162
    outer loop
      vertex -8.6987 9.66088 0
      vertex -10.5172 7.64121 0
      vertex -10.037 11.1472 2
    endloop
  endfacet
  facet normal -0.416767 0.57363 -0.705162
    outer loop
      vertex -8.6987 9.66088 0
      vertex -10.037 11.1472 2
      vertex -7.5 12.9904 2
    endloop
  endfacet
  facet normal -0.416767 0.57363 -0.705162
    outer loop
      vertex -6.5 11.2583 0
      vertex -8.6987 9.66088 0
      vertex -7.5 12.9904 2
    endloop
  endfacet
  facet normal -0.288395 0.647746 -0.705162
    outer loop
      vertex -6.5 11.2583 0
      vertex -7.5 12.9904 2
      vertex -4.63525 14.2658 2
    endloop
  endfacet
  facet normal -0.288395 0.647746 -0.705162
    outer loop
      vertex -4.01722 12.3637 0
      vertex -6.5 11.2583 0
      vertex -4.63525 14.2658 2
    endloop
  endfacet
  facet normal -0.147419 0.693552 -0.705162
    outer loop
      vertex -4.01722 12.3637 0
      vertex -4.63525 14.2658 2
      vertex -1.56793 14.9178 2
    endloop
  endfacet
  facet normal -0.147419 0.693552 -0.705162
    outer loop
      vertex -1.35887 12.9288 0
      vertex -4.01722 12.3637 0
      vertex -1.56793 14.9178 2
    endloop
  endfacet
  facet normal 0 0.709046 -0.705162
    outer loop
      vertex -1.56793 14.9178 2
      vertex 1.56793 14.9178 2
      vertex -1.35887 12.9288 0
    endloop
  endfacet
  facet normal 0 0.709046 -0.705162
    outer loop
      vertex -1.35887 12.9288 0
      vertex 1.56793 14.9178 2
      vertex 1.35887 12.9288 0
    endloop
  endfacet
  facet normal 0.147419 0.693552 -0.705162
    outer loop
      vertex 4.63525 14.2658 2
      vertex 1.35887 12.9288 0
      vertex 1.56793 14.9178 2
    endloop
  endfacet
  facet normal 0.147419 0.693552 -0.705162
    outer loop
      vertex 4.01722 12.3637 0
      vertex 1.35887 12.9288 0
      vertex 4.63525 14.2658 2
    endloop
  endfacet
  facet normal 0.288395 0.647746 -0.705162
    outer loop
      vertex 7.5 12.9904 2
      vertex 4.01722 12.3637 0
      vertex 4.63525 14.2658 2
    endloop
  endfacet
  facet normal 0.288395 0.647746 -0.705162
    outer loop
      vertex 6.5 11.2583 0
      vertex 4.01722 12.3637 0
      vertex 7.5 12.9904 2
    endloop
  endfacet
  facet normal 0.416767 0.57363 -0.705162
    outer loop
      vertex 10.037 11.1472 2
      vertex 6.5 11.2583 0
      vertex 7.5 12.9904 2
    endloop
  endfacet
  facet normal 0.416767 0.573631 -0.705162
    outer loop
      vertex 8.6987 9.66088 0
      vertex 6.5 11.2583 0
      vertex 10.037 11.1472 2
    endloop
  endfacet
  facet normal 0.526924 0.474445 -0.705162
    outer loop
      vertex 12.1353 8.81678 2
      vertex 8.6987 9.66088 0
      vertex 10.037 11.1472 2
    endloop
  endfacet
  facet normal 0.526924 0.474444 -0.705162
    outer loop
      vertex 10.5172 7.64121 0
      vertex 8.6987 9.66088 0
      vertex 12.1353 8.81678 2
    endloop
  endfacet
  facet normal 0.614052 0.354523 -0.705162
    outer loop
      vertex 13.7032 6.10105 2
      vertex 10.5172 7.64121 0
      vertex 12.1353 8.81678 2
    endloop
  endfacet
  facet normal 0.614052 0.354523 -0.705162
    outer loop
      vertex 11.8761 5.28758 0
      vertex 10.5172 7.64121 0
      vertex 13.7032 6.10105 2
    endloop
  endfacet
  facet normal 0.674343 0.219107 -0.705162
    outer loop
      vertex 14.6722 3.11867 2
      vertex 11.8761 5.28758 0
      vertex 13.7032 6.10105 2
    endloop
  endfacet
  facet normal 0.674343 0.219107 -0.705162
    outer loop
      vertex 12.7159 2.70285 0
      vertex 11.8761 5.28758 0
      vertex 14.6722 3.11867 2
    endloop
  endfacet
  facet normal 0.705162 0.0741155 -0.705162
    outer loop
      vertex 15 0 2
      vertex 12.7159 2.70285 0
      vertex 14.6722 3.11867 2
    endloop
  endfacet
  facet normal 0.705162 0.0741155 -0.705162
    outer loop
      vertex 13 0 0
      vertex 12.7159 2.70285 0
      vertex 15 0 2
    endloop
  endfacet
  facet normal 0.705162 -0.0741155 -0.705162
    outer loop
      vertex 14.6722 -3.11867 2
      vertex 13 0 0
      vertex 15 0 2
    endloop
  endfacet
  facet normal 0.705162 -0.0741155 -0.705162
    outer loop
      vertex 14.6722 -3.11867 2
      vertex 12.7159 -2.70285 0
      vertex 13 0 0
    endloop
  endfacet
  facet normal 0.674343 -0.219107 -0.705162
    outer loop
      vertex 13.7032 -6.10105 2
      vertex 12.7159 -2.70285 0
      vertex 14.6722 -3.11867 2
    endloop
  endfacet
  facet normal 0.674343 -0.219107 -0.705162
    outer loop
      vertex 13.7032 -6.10105 2
      vertex 11.8761 -5.28758 0
      vertex 12.7159 -2.70285 0
    endloop
  endfacet
  facet normal 0.614052 -0.354523 -0.705162
    outer loop
      vertex 12.1353 -8.81678 2
      vertex 11.8761 -5.28758 0
      vertex 13.7032 -6.10105 2
    endloop
  endfacet
  facet normal 0.614052 -0.354523 -0.705162
    outer loop
      vertex 12.1353 -8.81678 2
      vertex 10.5172 -7.64121 0
      vertex 11.8761 -5.28758 0
    endloop
  endfacet
  facet normal 0.526924 -0.474445 -0.705162
    outer loop
      vertex 12.1353 -8.81678 2
      vertex 10.037 -11.1472 2
      vertex 10.5172 -7.64121 0
    endloop
  endfacet
  facet normal 0.526924 -0.474445 -0.705162
    outer loop
      vertex 10.037 -11.1472 2
      vertex 8.6987 -9.66088 0
      vertex 10.5172 -7.64121 0
    endloop
  endfacet
  facet normal 0.416767 -0.57363 -0.705162
    outer loop
      vertex 10.037 -11.1472 2
      vertex 7.5 -12.9904 2
      vertex 8.6987 -9.66088 0
    endloop
  endfacet
  facet normal 0.416767 -0.57363 -0.705162
    outer loop
      vertex 7.5 -12.9904 2
      vertex 6.5 -11.2583 0
      vertex 8.6987 -9.66088 0
    endloop
  endfacet
  facet normal 0.288395 -0.647746 -0.705162
    outer loop
      vertex 7.5 -12.9904 2
      vertex 4.63525 -14.2658 2
      vertex 6.5 -11.2583 0
    endloop
  endfacet
  facet normal 0.288395 -0.647746 -0.705162
    outer loop
      vertex 4.63525 -14.2658 2
      vertex 4.01722 -12.3637 0
      vertex 6.5 -11.2583 0
    endloop
  endfacet
  facet normal 0.147419 -0.693552 -0.705162
    outer loop
      vertex 4.63525 -14.2658 2
      vertex 1.56793 -14.9178 2
      vertex 4.01722 -12.3637 0
    endloop
  endfacet
  facet normal 0.147419 -0.693552 -0.705162
    outer loop
      vertex 1.56793 -14.9178 2
      vertex 1.35887 -12.9288 0
      vertex 4.01722 -12.3637 0
    endloop
  endfacet
  facet normal 0 -0.709046 -0.705162
    outer loop
      vertex 1.56793 -14.9178 2
      vertex -1.56793 -14.9178 2
      vertex -1.35887 -12.9288 0
    endloop
  endfacet
  facet normal 0 -0.709046 -0.705162
    outer loop
      vertex 1.35887 -12.9288 0
      vertex 1.56793 -14.9178 2
      vertex -1.35887 -12.9288 0
    endloop
  endfacet
  facet normal -0.147419 -0.693552 -0.705162
    outer loop
      vertex -1.56793 -14.9178 2
      vertex -4.63525 -14.2658 2
      vertex -1.35887 -12.9288 0
    endloop
  endfacet
  facet normal -0.147419 -0.693552 -0.705162
    outer loop
      vertex -1.35887 -12.9288 0
      vertex -4.63525 -14.2658 2
      vertex -4.01722 -12.3637 0
    endloop
  endfacet
  facet normal -0.288395 -0.647746 -0.705162
    outer loop
      vertex -4.63525 -14.2658 2
      vertex -7.5 -12.9904 2
      vertex -4.01722 -12.3637 0
    endloop
  endfacet
  facet normal -0.288395 -0.647746 -0.705162
    outer loop
      vertex -4.01722 -12.3637 0
      vertex -7.5 -12.9904 2
      vertex -6.5 -11.2583 0
    endloop
  endfacet
  facet normal -0.416767 -0.57363 -0.705162
    outer loop
      vertex -7.5 -12.9904 2
      vertex -10.037 -11.1472 2
      vertex -6.5 -11.2583 0
    endloop
  endfacet
  facet normal -0.416767 -0.573631 -0.705162
    outer loop
      vertex -6.5 -11.2583 0
      vertex -10.037 -11.1472 2
      vertex -8.6987 -9.66088 0
    endloop
  endfacet
  facet normal -0.526924 -0.474445 -0.705162
    outer loop
      vertex -10.037 -11.1472 2
      vertex -12.1353 -8.81678 2
      vertex -8.6987 -9.66088 0
    endloop
  endfacet
  facet normal -0.526924 -0.474444 -0.705162
    outer loop
      vertex -8.6987 -9.66088 0
      vertex -12.1353 -8.81678 2
      vertex -10.5172 -7.64121 0
    endloop
  endfacet
  facet normal -0.614052 -0.354523 -0.705162
    outer loop
      vertex -12.1353 -8.81678 2
      vertex -13.7032 -6.10105 2
      vertex -10.5172 -7.64121 0
    endloop
  endfacet
  facet normal -0.614052 -0.354523 -0.705162
    outer loop
      vertex -10.5172 -7.64121 0
      vertex -13.7032 -6.10105 2
      vertex -11.8761 -5.28758 0
    endloop
  endfacet
  facet normal -0.674343 -0.219107 -0.705162
    outer loop
      vertex -13.7032 -6.10105 2
      vertex -14.6722 -3.11867 2
      vertex -11.8761 -5.28758 0
    endloop
  endfacet
  facet normal -0.674343 -0.219107 -0.705162
    outer loop
      vertex -11.8761 -5.28758 0
      vertex -14.6722 -3.11867 2
      vertex -12.7159 -2.70285 0
    endloop
  endfacet
  facet normal -0.994522 -0.104529 0
    outer loop
      vertex -9.9 0 2
      vertex -9.68366 -2.05833 2
      vertex -9.9 0 5
    endloop
  endfacet
  facet normal -0.994522 -0.104529 0
    outer loop
      vertex -9.9 0 5
      vertex -9.68366 -2.05833 2
      vertex -9.68366 -2.05833 5
    endloop
  endfacet
  facet normal -0.951057 -0.309017 0
    outer loop
      vertex -9.68366 -2.05833 2
      vertex -9.0441 -4.02669 2
      vertex -9.68366 -2.05833 5
    endloop
  endfacet
  facet normal -0.951057 -0.309017 0
    outer loop
      vertex -9.68366 -2.05833 5
      vertex -9.0441 -4.02669 2
      vertex -9.0441 -4.02669 5
    endloop
  endfacet
  facet normal -0.866025 -0.5 0
    outer loop
      vertex -9.0441 -4.02669 2
      vertex -8.00927 -5.81907 2
      vertex -9.0441 -4.02669 5
    endloop
  endfacet
  facet normal -0.866025 -0.5 0
    outer loop
      vertex -9.0441 -4.02669 5
      vertex -8.00927 -5.81907 2
      vertex -8.00927 -5.81907 5
    endloop
  endfacet
  facet normal -0.743145 -0.66913 0
    outer loop
      vertex -8.00927 -5.81907 2
      vertex -6.62439 -7.35713 2
      vertex -8.00927 -5.81907 5
    endloop
  endfacet
  facet normal -0.743145 -0.66913 0
    outer loop
      vertex -8.00927 -5.81907 5
      vertex -6.62439 -7.35713 2
      vertex -6.62439 -7.35713 5
    endloop
  endfacet
  facet normal -0.587785 -0.809017 0
    outer loop
      vertex -6.62439 -7.35713 5
      vertex -6.62439 -7.35713 2
      vertex -4.95 -8.57365 2
    endloop
  endfacet
  facet normal -0.587785 -0.809017 0
    outer loop
      vertex -5.73956 -8 5
      vertex -6.62439 -7.35713 5
      vertex -4.95 -8.57365 2
    endloop
  endfacet
  facet normal -0.587785 -0.809017 0
    outer loop
      vertex -4.95 -8.57365 5.8
      vertex -5.73956 -8 5
      vertex -4.95 -8.57365 2
    endloop
  endfacet
  facet normal -0.587785 -0.809017 0
    outer loop
      vertex -5.73956 -8 5.8
      vertex -5.73956 -8 5
      vertex -4.95 -8.57365 5.8
    endloop
  endfacet
  facet normal -0.406737 -0.913545 0
    outer loop
      vertex -4.95 -8.57365 5.8
      vertex -4.95 -8.57365 2
      vertex -3.05927 -9.41546 2
    endloop
  endfacet
  facet normal -0.406737 -0.913545 0
    outer loop
      vertex -3.05927 -9.41546 5.8
      vertex -4.95 -8.57365 5.8
      vertex -3.05927 -9.41546 2
    endloop
  endfacet
  facet normal -0.207912 -0.978148 0
    outer loop
      vertex -3.05927 -9.41546 5.8
      vertex -3.05927 -9.41546 2
      vertex -1.03483 -9.84577 2
    endloop
  endfacet
  facet normal -0.207912 -0.978148 0
    outer loop
      vertex -1.03483 -9.84577 5.8
      vertex -3.05927 -9.41546 5.8
      vertex -1.03483 -9.84577 2
    endloop
  endfacet
  facet normal 0 -1 0
    outer loop
      vertex -1.03483 -9.84577 5.8
      vertex -1.03483 -9.84577 2
      vertex 1.03483 -9.84577 2
    endloop
  endfacet
  facet normal 0 -1 0
    outer loop
      vertex 1.03483 -9.84577 5.8
      vertex -1.03483 -9.84577 5.8
      vertex 1.03483 -9.84577 2
    endloop
  endfacet
  facet normal 0.207912 -0.978148 0
    outer loop
      vertex 1.03483 -9.84577 5.8
      vertex 1.03483 -9.84577 2
      vertex 3.05927 -9.41546 2
    endloop
  endfacet
  facet normal 0.207912 -0.978148 0
    outer loop
      vertex 3.05927 -9.41546 5.8
      vertex 1.03483 -9.84577 5.8
      vertex 3.05927 -9.41546 2
    endloop
  endfacet
  facet normal 0.406737 -0.913545 0
    outer loop
      vertex 3.05927 -9.41546 5.8
      vertex 3.05927 -9.41546 2
      vertex 4.95 -8.57365 2
    endloop
  endfacet
  facet normal 0.406737 -0.913545 0
    outer loop
      vertex 4.95 -8.57365 5.8
      vertex 3.05927 -9.41546 5.8
      vertex 4.95 -8.57365 2
    endloop
  endfacet
  facet normal 0.587785 -0.809017 0
    outer loop
      vertex 4.95 -8.57365 5.8
      vertex 4.95 -8.57365 2
      vertex 6.62439 -7.35713 2
    endloop
  endfacet
  facet normal 0.587785 -0.809017 0
    outer loop
      vertex 5.73956 -8 5
      vertex 4.95 -8.57365 5.8
      vertex 6.62439 -7.35713 2
    endloop
  endfacet
  facet normal 0.587785 -0.809017 0
    outer loop
      vertex 6.62439 -7.35713 5
      vertex 5.73956 -8 5
      vertex 6.62439 -7.35713 2
    endloop
  endfacet
  facet normal 0.587785 -0.809017 0
    outer loop
      vertex 5.73956 -8 5
      vertex 5.73956 -8 5.8
      vertex 4.95 -8.57365 5.8
    endloop
  endfacet
  facet normal 0.743145 -0.66913 0
    outer loop
      vertex 6.62439 -7.35713 5
      vertex 6.62439 -7.35713 2
      vertex 8.00927 -5.81907 2
    endloop
  endfacet
  facet normal 0.743145 -0.66913 0
    outer loop
      vertex 8.00927 -5.81907 5
      vertex 6.62439 -7.35713 5
      vertex 8.00927 -5.81907 2
    endloop
  endfacet
  facet normal 0.866025 -0.5 0
    outer loop
      vertex 8.00927 -5.81907 5
      vertex 8.00927 -5.81907 2
      vertex 9.0441 -4.02669 2
    endloop
  endfacet
  facet normal 0.866025 -0.5 0
    outer loop
      vertex 9.0441 -4.02669 5
      vertex 8.00927 -5.81907 5
      vertex 9.0441 -4.02669 2
    endloop
  endfacet
  facet normal 0.951057 -0.309017 0
    outer loop
      vertex 9.0441 -4.02669 5
      vertex 9.0441 -4.02669 2
      vertex 9.68366 -2.05833 2
    endloop
  endfacet
  facet normal 0.951057 -0.309017 0
    outer loop
      vertex 9.68366 -2.05833 5
      vertex 9.0441 -4.02669 5
      vertex 9.68366 -2.05833 2
    endloop
  endfacet
  facet normal 0.994522 -0.104529 0
    outer loop
      vertex 9.68366 -2.05833 5
      vertex 9.68366 -2.05833 2
      vertex 9.9 0 2
    endloop
  endfacet
  facet normal 0.994522 -0.104529 0
    outer loop
      vertex 9.9 0 5
      vertex 9.68366 -2.05833 5
      vertex 9.9 0 2
    endloop
  endfacet
  facet normal 0.994522 0.104529 0
    outer loop
      vertex 9.9 0 2
      vertex 9.68366 2.05833 2
      vertex 9.68366 2.05833 5
    endloop
  endfacet
  facet normal 0.994522 0.104529 0
    outer loop
      vertex 9.9 0 5
      vertex 9.9 0 2
      vertex 9.68366 2.05833 5
    endloop
  endfacet
  facet normal 0.951057 0.309017 0
    outer loop
      vertex 9.68366 2.05833 2
      vertex 9.0441 4.02669 2
      vertex 9.0441 4.02669 5
    endloop
  endfacet
  facet normal 0.951057 0.309017 0
    outer loop
      vertex 9.68366 2.05833 5
      vertex 9.68366 2.05833 2
      vertex 9.0441 4.02669 5
    endloop
  endfacet
  facet normal 0.866025 0.5 0
    outer loop
      vertex 9.0441 4.02669 2
      vertex 8.00927 5.81907 2
      vertex 8.00927 5.81907 5
    endloop
  endfacet
  facet normal 0.866025 0.5 0
    outer loop
      vertex 9.0441 4.02669 5
      vertex 9.0441 4.02669 2
      vertex 8.00927 5.81907 5
    endloop
  endfacet
  facet normal 0.743145 0.66913 0
    outer loop
      vertex 8.00927 5.81907 2
      vertex 6.62439 7.35713 2
      vertex 6.62439 7.35713 5
    endloop
  endfacet
  facet normal 0.743145 0.66913 0
    outer loop
      vertex 8.00927 5.81907 5
      vertex 8.00927 5.81907 2
      vertex 6.62439 7.35713 5
    endloop
  endfacet
  facet normal 0.587785 0.809017 0
    outer loop
      vertex 4.95 8.57365 2
      vertex 4.95 8.57365 5.8
      vertex 6.62439 7.35713 2
    endloop
  endfacet
  facet normal 0.587785 0.809017 0
    outer loop
      vertex 5.73956 8 5
      vertex 4.95 8.57365 5.8
      vertex 5.73956 8 5.8
    endloop
  endfacet
  facet normal 0.587785 0.809017 0
    outer loop
      vertex 6.62439 7.35713 2
      vertex 4.95 8.57365 5.8
      vertex 5.73956 8 5
    endloop
  endfacet
  facet normal 0.587785 0.809017 0
    outer loop
      vertex 6.62439 7.35713 5
      vertex 6.62439 7.35713 2
      vertex 5.73956 8 5
    endloop
  endfacet
  facet normal 0.406737 0.913545 0
    outer loop
      vertex 3.05927 9.41546 2
      vertex 3.05927 9.41546 5.8
      vertex 4.95 8.57365 2
    endloop
  endfacet
  facet normal 0.406737 0.913545 0
    outer loop
      vertex 4.95 8.57365 2
      vertex 3.05927 9.41546 5.8
      vertex 4.95 8.57365 5.8
    endloop
  endfacet
  facet normal 0.207912 0.978148 0
    outer loop
      vertex 1.03483 9.84577 2
      vertex 1.03483 9.84577 5.8
      vertex 3.05927 9.41546 2
    endloop
  endfacet
  facet normal 0.207912 0.978148 0
    outer loop
      vertex 3.05927 9.41546 2
      vertex 1.03483 9.84577 5.8
      vertex 3.05927 9.41546 5.8
    endloop
  endfacet
  facet normal 0 1 0
    outer loop
      vertex -1.03483 9.84577 2
      vertex -1.03483 9.84577 5.8
      vertex 1.03483 9.84577 2
    endloop
  endfacet
  facet normal 0 1 0
    outer loop
      vertex 1.03483 9.84577 2
      vertex -1.03483 9.84577 5.8
      vertex 1.03483 9.84577 5.8
    endloop
  endfacet
  facet normal -0.207912 0.978148 0
    outer loop
      vertex -3.05927 9.41546 2
      vertex -3.05927 9.41546 5.8
      vertex -1.03483 9.84577 2
    endloop
  endfacet
  facet normal -0.207912 0.978148 0
    outer loop
      vertex -1.03483 9.84577 2
      vertex -3.05927 9.41546 5.8
      vertex -1.03483 9.84577 5.8
    endloop
  endfacet
  facet normal -0.406737 0.913545 0
    outer loop
      vertex -4.95 8.57365 2
      vertex -4.95 8.57365 5.8
      vertex -3.05927 9.41546 2
    endloop
  endfacet
  facet normal -0.406737 0.913545 0
    outer loop
      vertex -3.05927 9.41546 2
      vertex -4.95 8.57365 5.8
      vertex -3.05927 9.41546 5.8
    endloop
  endfacet
  facet normal -0.587785 0.809017 0
    outer loop
      vertex -6.62439 7.35713 2
      vertex -6.62439 7.35713 5
      vertex -4.95 8.57365 2
    endloop
  endfacet
  facet normal -0.587785 0.809017 0
    outer loop
      vertex -4.95 8.57365 2
      vertex -6.62439 7.35713 5
      vertex -5.73956 8 5
    endloop
  endfacet
  facet normal -0.587785 0.809017 0
    outer loop
      vertex -4.95 8.57365 2
      vertex -5.73956 8 5
      vertex -5.73956 8 5.8
    endloop
  endfacet
  facet normal -0.587785 0.809017 0
    outer loop
      vertex -4.95 8.57365 2
      vertex -5.73956 8 5.8
      vertex -4.95 8.57365 5.8
    endloop
  endfacet
  facet normal -0.743145 0.66913 0
    outer loop
      vertex -8.00927 5.81907 2
      vertex -8.00927 5.81907 5
      vertex -6.62439 7.35713 2
    endloop
  endfacet
  facet normal -0.743145 0.66913 0
    outer loop
      vertex -6.62439 7.35713 2
      vertex -8.00927 5.81907 5
      vertex -6.62439 7.35713 5
    endloop
  endfacet
  facet normal -0.866025 0.5 0
    outer loop
      vertex -9.0441 4.02669 2
      vertex -9.0441 4.02669 5
      vertex -8.00927 5.81907 2
    endloop
  endfacet
  facet normal -0.866025 0.5 0
    outer loop
      vertex -8.00927 5.81907 2
      vertex -9.0441 4.02669 5
      vertex -8.00927 5.81907 5
    endloop
  endfacet
  facet normal -0.951057 0.309017 0
    outer loop
      vertex -9.68366 2.05833 2
      vertex -9.68366 2.05833 5
      vertex -9.0441 4.02669 2
    endloop
  endfacet
  facet normal -0.951057 0.309017 0
    outer loop
      vertex -9.0441 4.02669 2
      vertex -9.68366 2.05833 5
      vertex -9.0441 4.02669 5
    endloop
  endfacet
  facet normal -0.994522 0.104529 0
    outer loop
      vertex -9.9 0 2
      vertex -9.9 0 5
      vertex -9.68366 2.05833 2
    endloop
  endfacet
  facet normal -0.994522 0.104529 0
    outer loop
      vertex -9.68366 2.05833 2
      vertex -9.9 0 5
      vertex -9.68366 2.05833 5
    endloop
  endfacet
  facet normal 0 0 -1
    outer loop
      vertex -13 0 0
      vertex -12.7159 2.70285 0
      vertex -12.7159 -2.70285 0
    endloop
  endfacet
  facet normal 0 0 -1
    outer loop
      vertex -12.7159 -2.70285 0
      vertex -12.7159 2.70285 0
      vertex -11.8761 5.28758 0
    endloop
  endfacet
  facet normal 0 0 -1
    outer loop
      vertex -12.7159 -2.70285 0
      vertex -11.8761 5.28758 0
      vertex -10.5172 7.64121 0
    endloop
  endfacet
  facet normal 0 0 -1
    outer loop
      vertex -12.7159 -2.70285 0
      vertex -10.5172 7.64121 0
      vertex -8.6987 9.66088 0
    endloop
  endfacet
  facet normal 0 0 -1
    outer loop
      vertex -12.7159 -2.70285 0
      vertex -8.6987 9.66088 0
      vertex -6.5 11.2583 0
    endloop
  endfacet
  facet normal 0 0 -1
    outer loop
      vertex -12.7159 -2.70285 0
      vertex -6.5 11.2583 0
      vertex -4.01722 12.3637 0
    endloop
  endfacet
  facet normal 0 0 -1
    outer loop
      vertex -12.7159 -2.70285 0
      vertex -4.01722 12.3637 0
      vertex -1.35887 12.9288 0
    endloop
  endfacet
  facet normal 0 0 -1
    outer loop
      vertex -12.7159 -2.70285 0
      vertex -1.35887 12.9288 0
      vertex 1.35887 12.9288 0
    endloop
  endfacet
  facet normal 0 0 -1
    outer loop
      vertex -12.7159 -2.70285 0
      vertex 1.35887 12.9288 0
      vertex 4.01722 12.3637 0
    endloop
  endfacet
  facet normal 0 0 -1
    outer loop
      vertex -12.7159 -2.70285 0
      vertex 4.01722 12.3637 0
      vertex 6.5 11.2583 0
    endloop
  endfacet
  facet normal 0 0 -1
    outer loop
      vertex -12.7159 -2.70285 0
      vertex 6.5 11.2583 0
      vertex 8.6987 9.66088 0
    endloop
  endfacet
  facet normal 0 0 -1
    outer loop
      vertex -12.7159 -2.70285 0
      vertex 8.6987 9.66088 0
      vertex 10.5172 7.64121 0
    endloop
  endfacet
  facet normal 0 0 -1
    outer loop
      vertex -12.7159 -2.70285 0
      vertex 10.5172 7.64121 0
      vertex 11.8761 5.28758 0
    endloop
  endfacet
  facet normal 0 0 -1
    outer loop
      vertex -12.7159 -2.70285 0
      vertex 11.8761 5.28758 0
      vertex 12.7159 2.70285 0
    endloop
  endfacet
  facet normal 0 0 -1
    outer loop
      vertex -12.7159 -2.70285 0
      vertex 12.7159 2.70285 0
      vertex 13 0 0
    endloop
  endfacet
  facet normal 0 0 -1
    outer loop
      vertex -12.7159 -2.70285 0
      vertex 13 0 0
      vertex 12.7159 -2.70285 0
    endloop
  endfacet
  facet normal 0 0 -1
    outer loop
      vertex -12.7159 -2.70285 0
      vertex 12.7159 -2.70285 0
      vertex 11.8761 -5.28758 0
    endloop
  endfacet
  facet normal 0 0 -1
    outer loop
      vertex -12.7159 -2.70285 0
      vertex 11.8761 -5.28758 0
      vertex 10.5172 -7.64121 0
    endloop
  endfacet
  facet normal 0 0 -1
    outer loop
      vertex -12.7159 -2.70285 0
      vertex 10.5172 -7.64121 0
      vertex 8.6987 -9.66088 0
    endloop
  endfacet
  facet normal 0 0 -1
    outer loop
      vertex -12.7159 -2.70285 0
      vertex 8.6987 -9.66088 0
      vertex 6.5 -11.2583 0
    endloop
  endfacet
  facet normal 0 0 -1
    outer loop
      vertex -12.7159 -2.70285 0
      vertex 6.5 -11.2583 0
      vertex 4.01722 -12.3637 0
    endloop
  endfacet
  facet normal 0 0 -1
    outer loop
      vertex -12.7159 -2.70285 0
      vertex 4.01722 -12.3637 0
      vertex 1.35887 -12.9288 0
    endloop
  endfacet
  facet normal 0 0 -1
    outer loop
      vertex -12.7159 -2.70285 0
      vertex 1.35887 -12.9288 0
      vertex -1.35887 -12.9288 0
    endloop
  endfacet
  facet normal 0 0 -1
    outer loop
      vertex -12.7159 -2.70285 0
      vertex -1.35887 -12.9288 0
      vertex -4.01722 -12.3637 0
    endloop
  endfacet
  facet normal 0 0 -1
    outer loop
      vertex -12.7159 -2.70285 0
      vertex -4.01722 -12.3637 0
      vertex -6.5 -11.2583 0
    endloop
  endfacet
  facet normal 0 0 -1
    outer loop
      vertex -12.7159 -2.70285 0
      vertex -6.5 -11.2583 0
      vertex -8.6987 -9.66088 0
    endloop
  endfacet
  facet normal 0 0 -1
    outer loop
      vertex -12.7159 -2.70285 0
      vertex -8.6987 -9.66088 0
      vertex -10.5172 -7.64121 0
    endloop
  endfacet
  facet normal 0 0 -1
    outer loop
      vertex -12.7159 -2.70285 0
      vertex -10.5172 -7.64121 0
      vertex -11.8761 -5.28758 0
    endloop
  endfacet
  facet normal 0 0 1
    outer loop
      vertex -9.68366 2.05833 5
      vertex -9.9 0 5
      vertex -9.68366 -2.05833 5
    endloop
  endfacet
  facet normal 0 0 1
    outer loop
      vertex -8.00927 -5.81907 5
      vertex -9.68366 2.05833 5
      vertex -9.0441 -4.02669 5
    endloop
  endfacet
  facet normal 0 0 1
    outer loop
      vertex -9.0441 -4.02669 5
      vertex -9.68366 2.05833 5
      vertex -9.68366 -2.05833 5
    endloop
  endfacet
  facet normal 0 0 1
    outer loop
      vertex -8.67686 -1.98044 5
      vertex -9.68366 2.05833 5
      vertex -8.00927 -5.81907 5
    endloop
  endfacet
  facet normal 0 0 1
    outer loop
      vertex -8.67686 -1.98044 5
      vertex -8.9 0 5
      vertex -9.68366 2.05833 5
    endloop
  endfacet
  facet normal 0 0 1
    outer loop
      vertex -3.8912 -8 5
      vertex -5.54906 -6.9583 5
      vertex -5.73956 -8 5
    endloop
  endfacet
  facet normal 0 0 1
    outer loop
      vertex -5.73956 -8 5
      vertex -6.9583 -5.54906 5
      vertex -6.62439 -7.35713 5
    endloop
  endfacet
  facet normal 0 0 1
    outer loop
      vertex -6.62439 -7.35713 5
      vertex -8.01862 -3.86156 5
      vertex -8.00927 -5.81907 5
    endloop
  endfacet
  facet normal 0 0 1
    outer loop
      vertex -8.01862 -3.86156 5
      vertex -8.67686 -1.98044 5
      vertex -8.00927 -5.81907 5
    endloop
  endfacet
  facet normal 0 0 1
    outer loop
      vertex -8.9 0 5
      vertex -8.67686 1.98044 5
      vertex -9.68366 2.05833 5
    endloop
  endfacet
  facet normal 0 0 1
    outer loop
      vertex -6.9583 -5.54906 5
      vertex -8.01862 -3.86156 5
      vertex -6.62439 -7.35713 5
    endloop
  endfacet
  facet normal 0 0 1
    outer loop
      vertex -8.01862 3.86156 5
      vertex -9.68366 2.05833 5
      vertex -8.67686 1.98044 5
    endloop
  endfacet
  facet normal 0 0 1
    outer loop
      vertex -6.9583 5.54906 5
      vertex -9.68366 2.05833 5
      vertex -8.01862 3.86156 5
    endloop
  endfacet
  facet normal 0 0 1
    outer loop
      vertex -5.73956 8 5
      vertex -9.68366 2.05833 5
      vertex -6.9583 5.54906 5
    endloop
  endfacet
  facet normal 0 0 1
    outer loop
      vertex -5.73956 8 5
      vertex -6.9583 5.54906 5
      vertex -5.54906 6.9583 5
    endloop
  endfacet
  facet normal 0 0 1
    outer loop
      vertex -5.73956 8 5
      vertex -5.54906 6.9583 5
      vertex -3.8912 8 5
    endloop
  endfacet
  facet normal 0 0 1
    outer loop
      vertex -6.62439 7.35713 5
      vertex -9.68366 2.05833 5
      vertex -5.73956 8 5
    endloop
  endfacet
  facet normal 0 0 1
    outer loop
      vertex -8.00927 5.81907 5
      vertex -9.68366 2.05833 5
      vertex -6.62439 7.35713 5
    endloop
  endfacet
  facet normal 0 0 1
    outer loop
      vertex -9.0441 4.02669 5
      vertex -9.68366 2.05833 5
      vertex -8.00927 5.81907 5
    endloop
  endfacet
  facet normal 0 0 1
    outer loop
      vertex -5.54906 -6.9583 5
      vertex -6.9583 -5.54906 5
      vertex -5.73956 -8 5
    endloop
  endfacet
  facet normal 0 1 0
    outer loop
      vertex 5.73956 -8 5.8
      vertex 5.73956 -8 5
      vertex -5.73956 -8 5.8
    endloop
  endfacet
  facet normal 0 1 0
    outer loop
      vertex -5.73956 -8 5.8
      vertex 5.73956 -8 5
      vertex 3.8912 -8 5
    endloop
  endfacet
  facet normal 0 1 0
    outer loop
      vertex -5.73956 -8 5.8
      vertex 3.8912 -8 5
      vertex -3.8912 -8 5
    endloop
  endfacet
  facet normal 0 1 0
    outer loop
      vertex -5.73956 -8 5.8
      vertex -3.8912 -8 5
      vertex -5.73956 -8 5
    endloop
  endfacet
  facet normal 0 0 1
    outer loop
      vertex 5.73956 -8 5.8
      vertex -5.73956 -8 5.8
      vertex -4.95 -8.57365 5.8
    endloop
  endfacet
  facet normal 0 0 1
    outer loop
      vertex -1.03483 -9.84577 5.8
      vertex 5.73956 -8 5.8
      vertex -3.05927 -9.41546 5.8
    endloop
  endfacet
  facet normal 0 0 1
    outer loop
      vertex -3.05927 -9.41546 5.8
      vertex 5.73956 -8 5.8
      vertex -4.95 -8.57365 5.8
    endloop
  endfacet
  facet normal 0 0 1
    outer loop
      vertex 1.03483 -9.84577 5.8
      vertex 5.73956 -8 5.8
      vertex -1.03483 -9.84577 5.8
    endloop
  endfacet
  facet normal 0 0 1
    outer loop
      vertex 3.05927 -9.41546 5.8
      vertex 5.73956 -8 5.8
      vertex 1.03483 -9.84577 5.8
    endloop
  endfacet
  facet normal 0 0 1
    outer loop
      vertex 4.95 -8.57365 5.8
      vertex 5.73956 -8 5.8
      vertex 3.05927 -9.41546 5.8
    endloop
  endfacet
  facet normal 0 0 1
    outer loop
      vertex 5.54906 -6.9583 5
      vertex 3.8912 -8 5
      vertex 5.73956 -8 5
    endloop
  endfacet
  facet normal 0 0 1
    outer loop
      vertex 8.00927 -5.81907 5
      vertex 5.54906 -6.9583 5
      vertex 6.62439 -7.35713 5
    endloop
  endfacet
  facet normal 0 0 1
    outer loop
      vertex 6.62439 -7.35713 5
      vertex 5.54906 -6.9583 5
      vertex 5.73956 -8 5
    endloop
  endfacet
  facet normal 0 0 1
    outer loop
      vertex 9.0441 -4.02669 5
      vertex 5.54906 -6.9583 5
      vertex 8.00927 -5.81907 5
    endloop
  endfacet
  facet normal 0 0 1
    outer loop
      vertex 5.54906 6.9583 5
      vertex 6.62439 7.35713 5
      vertex 5.73956 8 5
    endloop
  endfacet
  facet normal 0 0 1
    outer loop
      vertex 8.67686 -1.98044 5
      vertex 8.01862 -3.86156 5
      vertex 9.68366 -2.05833 5
    endloop
  endfacet
  facet normal 0 0 1
    outer loop
      vertex 8.9 0 5
      vertex 8.67686 -1.98044 5
      vertex 9.9 0 5
    endloop
  endfacet
  facet normal 0 0 1
    outer loop
      vertex 8.67686 1.98044 5
      vertex 8.9 0 5
      vertex 9.68366 2.05833 5
    endloop
  endfacet
  facet normal 0 0 1
    outer loop
      vertex 8.01862 3.86156 5
      vertex 8.67686 1.98044 5
      vertex 9.0441 4.02669 5
    endloop
  endfacet
  facet normal 0 0 1
    outer loop
      vertex 6.9583 5.54906 5
      vertex 8.01862 3.86156 5
      vertex 8.00927 5.81907 5
    endloop
  endfacet
  facet normal 0 0 1
    outer loop
      vertex 3.8912 8 5
      vertex 5.54906 6.9583 5
      vertex 5.73956 8 5
    endloop
  endfacet
  facet normal 0 0 1
    outer loop
      vertex 6.62439 7.35713 5
      vertex 6.9583 5.54906 5
      vertex 8.00927 5.81907 5
    endloop
  endfacet
  facet normal 0 0 1
    outer loop
      vertex 8.00927 5.81907 5
      vertex 8.01862 3.86156 5
      vertex 9.0441 4.02669 5
    endloop
  endfacet
  facet normal 0 0 1
    outer loop
      vertex 9.0441 4.02669 5
      vertex 8.67686 1.98044 5
      vertex 9.68366 2.05833 5
    endloop
  endfacet
  facet normal 0 0 1
    outer loop
      vertex 9.68366 2.05833 5
      vertex 8.9 0 5
      vertex 9.9 0 5
    endloop
  endfacet
  facet normal 0 0 1
    outer loop
      vertex 9.9 0 5
      vertex 8.67686 -1.98044 5
      vertex 9.68366 -2.05833 5
    endloop
  endfacet
  facet normal 0 0 1
    outer loop
      vertex 9.68366 -2.05833 5
      vertex 8.01862 -3.86156 5
      vertex 9.0441 -4.02669 5
    endloop
  endfacet
  facet normal 0 0 1
    outer loop
      vertex 8.01862 -3.86156 5
      vertex 6.9583 -5.54906 5
      vertex 9.0441 -4.02669 5
    endloop
  endfacet
  facet normal 0 0 1
    outer loop
      vertex 6.9583 -5.54906 5
      vertex 5.54906 -6.9583 5
      vertex 9.0441 -4.02669 5
    endloop
  endfacet
  facet normal 0 0 1
    outer loop
      vertex 5.54906 6.9583 5
      vertex 6.9583 5.54906 5
      vertex 6.62439 7.35713 5
    endloop
  endfacet
  facet normal 0 -1 0
    outer loop
      vertex 3.8912 8 5
      vertex 5.73956 8 5
      vertex 5.73956 8 5.8
    endloop
  endfacet
  facet normal 0 -1 0
    outer loop
      vertex -3.8912 8 5
      vertex 3.8912 8 5
      vertex 5.73956 8 5.8
    endloop
  endfacet
  facet normal 0 -1 0
    outer loop
      vertex -5.73956 8 5.8
      vertex -3.8912 8 5
      vertex 5.73956 8 5.8
    endloop
  endfacet
  facet normal 0 -1 0
    outer loop
      vertex -5.73956 8 5
      vertex -3.8912 8 5
      vertex -5.73956 8 5.8
    endloop
  endfacet
  facet normal 0 0 1
    outer loop
      vertex -4.95 8.57365 5.8
      vertex -5.73956 8 5.8
      vertex 5.73956 8 5.8
    endloop
  endfacet
  facet normal 0 0 1
    outer loop
      vertex 3.05927 9.41546 5.8
      vertex -4.95 8.57365 5.8
      vertex 4.95 8.57365 5.8
    endloop
  endfacet
  facet normal 0 0 1
    outer loop
      vertex 4.95 8.57365 5.8
      vertex -4.95 8.57365 5.8
      vertex 5.73956 8 5.8
    endloop
  endfacet
  facet normal 0 0 1
    outer loop
      vertex 1.03483 9.84577 5.8
      vertex -4.95 8.57365 5.8
      vertex 3.05927 9.41546 5.8
    endloop
  endfacet
  facet normal 0 0 1
    outer loop
      vertex -1.03483 9.84577 5.8
      vertex -4.95 8.57365 5.8
      vertex 1.03483 9.84577 5.8
    endloop
  endfacet
  facet normal 0 0 1
    outer loop
      vertex -3.05927 9.41546 5.8
      vertex -4.95 8.57365 5.8
      vertex -1.03483 9.84577 5.8
    endloop
  endfacet
  facet normal 0 0 -1
    outer loop
      vertex -1.98044 8.67686 5
      vertex 0 8.9 5
      vertex -3.86156 8.01862 5
    endloop
  endfacet
  facet normal 0 0 -1
    outer loop
      vertex -3.86156 8.01862 5
      vertex 0 8.9 5
      vertex 1.98044 8.67686 5
    endloop
  endfacet
  facet normal 0 0 -1
    outer loop
      vertex -3.86156 8.01862 5
      vertex 1.98044 8.67686 5
      vertex 3.86156 8.01862 5
    endloop
  endfacet
  facet normal 0 0 -1
    outer loop
      vertex -3.86156 8.01862 5
      vertex 3.86156 8.01862 5
      vertex 3.8912 8 5
    endloop
  endfacet
  facet normal 0 0 -1
    outer loop
      vertex -3.86156 8.01862 5
      vertex 3.8912 8 5
      vertex -3.8912 8 5
    endloop
  endfacet
  facet normal 0.532032 -0.846724 0
    outer loop
      vertex -3.86156 8.01862 2.1
      vertex -3.86156 8.01862 5
      vertex -3.8912 8 5
    endloop
  endfacet
  facet normal 0.532032 -0.846724 0
    outer loop
      vertex -5.54906 6.9583 2.1
      vertex -3.86156 8.01862 2.1
      vertex -5.54906 6.9583 5
    endloop
  endfacet
  facet normal 0.532032 -0.846724 0
    outer loop
      vertex -5.54906 6.9583 5
      vertex -3.86156 8.01862 2.1
      vertex -3.8912 8 5
    endloop
  endfacet
  facet normal 0.707107 -0.707107 0
    outer loop
      vertex -5.54906 6.9583 2.1
      vertex -5.54906 6.9583 5
      vertex -6.9583 5.54906 5
    endloop
  endfacet
  facet normal 0.707107 -0.707107 0
    outer loop
      vertex -6.9583 5.54906 2.1
      vertex -5.54906 6.9583 2.1
      vertex -6.9583 5.54906 5
    endloop
  endfacet
  facet normal 0.846724 -0.532032 0
    outer loop
      vertex -6.9583 5.54906 2.1
      vertex -6.9583 5.54906 5
      vertex -8.01862 3.86156 5
    endloop
  endfacet
  facet normal 0.846724 -0.532032 0
    outer loop
      vertex -8.01862 3.86156 2.1
      vertex -6.9583 5.54906 2.1
      vertex -8.01862 3.86156 5
    endloop
  endfacet
  facet normal 0.943883 -0.330279 0
    outer loop
      vertex -8.01862 3.86156 2.1
      vertex -8.01862 3.86156 5
      vertex -8.67686 1.98044 5
    endloop
  endfacet
  facet normal 0.943883 -0.330279 0
    outer loop
      vertex -8.67686 1.98044 2.1
      vertex -8.01862 3.86156 2.1
      vertex -8.67686 1.98044 5
    endloop
  endfacet
  facet normal 0.993712 -0.111965 0
    outer loop
      vertex -8.67686 1.98044 2.1
      vertex -8.67686 1.98044 5
      vertex -8.9 0 5
    endloop
  endfacet
  facet normal 0.993712 -0.111965 0
    outer loop
      vertex -8.9 0 2.1
      vertex -8.67686 1.98044 2.1
      vertex -8.9 0 5
    endloop
  endfacet
  facet normal 0.993712 0.111965 0
    outer loop
      vertex -8.9 0 5
      vertex -8.67686 -1.98044 5
      vertex -8.67686 -1.98044 2.1
    endloop
  endfacet
  facet normal 0.993712 0.111965 0
    outer loop
      vertex -8.9 0 2.1
      vertex -8.9 0 5
      vertex -8.67686 -1.98044 2.1
    endloop
  endfacet
  facet normal 0.943883 0.330279 0
    outer loop
      vertex -8.67686 -1.98044 5
      vertex -8.01862 -3.86156 5
      vertex -8.01862 -3.86156 2.1
    endloop
  endfacet
  facet normal 0.943883 0.330279 0
    outer loop
      vertex -8.67686 -1.98044 2.1
      vertex -8.67686 -1.98044 5
      vertex -8.01862 -3.86156 2.1
    endloop
  endfacet
  facet normal 0.846724 0.532032 0
    outer loop
      vertex -8.01862 -3.86156 5
      vertex -6.9583 -5.54906 5
      vertex -6.9583 -5.54906 2.1
    endloop
  endfacet
  facet normal 0.846724 0.532032 0
    outer loop
      vertex -8.01862 -3.86156 2.1
      vertex -8.01862 -3.86156 5
      vertex -6.9583 -5.54906 2.1
    endloop
  endfacet
  facet normal 0.707107 0.707107 0
    outer loop
      vertex -5.54906 -6.9583 5
      vertex -5.54906 -6.9583 2.1
      vertex -6.9583 -5.54906 5
    endloop
  endfacet
  facet normal 0.707107 0.707107 0
    outer loop
      vertex -6.9583 -5.54906 5
      vertex -5.54906 -6.9583 2.1
      vertex -6.9583 -5.54906 2.1
    endloop
  endfacet
  facet normal 0.532032 0.846724 0
    outer loop
      vertex -3.86156 -8.01862 5
      vertex -3.86156 -8.01862 2.1
      vertex -3.8912 -8 5
    endloop
  endfacet
  facet normal 0.532032 0.846724 0
    outer loop
      vertex -3.8912 -8 5
      vertex -3.86156 -8.01862 2.1
      vertex -5.54906 -6.9583 5
    endloop
  endfacet
  facet normal 0.532032 0.846724 0
    outer loop
      vertex -5.54906 -6.9583 5
      vertex -3.86156 -8.01862 2.1
      vertex -5.54906 -6.9583 2.1
    endloop
  endfacet
  facet normal 0 0 -1
    outer loop
      vertex 3.86156 -8.01862 5
      vertex 1.98044 -8.67686 5
      vertex 3.8912 -8 5
    endloop
  endfacet
  facet normal 0 0 -1
    outer loop
      vertex 3.8912 -8 5
      vertex 1.98044 -8.67686 5
      vertex 0 -8.9 5
    endloop
  endfacet
  facet normal 0 0 -1
    outer loop
      vertex 3.8912 -8 5
      vertex 0 -8.9 5
      vertex -1.98044 -8.67686 5
    endloop
  endfacet
  facet normal 0 0 -1
    outer loop
      vertex 3.8912 -8 5
      vertex -1.98044 -8.67686 5
      vertex -3.86156 -8.01862 5
    endloop
  endfacet
  facet normal 0 0 -1
    outer loop
      vertex 3.8912 -8 5
      vertex -3.86156 -8.01862 5
      vertex -3.8912 -8 5
    endloop
  endfacet
  facet normal -0.532032 0.846724 0
    outer loop
      vertex 5.54906 -6.9583 5
      vertex 5.54906 -6.9583 2.1
      vertex 3.8912 -8 5
    endloop
  endfacet
  facet normal -0.532032 0.846724 0
    outer loop
      vertex 3.8912 -8 5
      vertex 5.54906 -6.9583 2.1
      vertex 3.86156 -8.01862 5
    endloop
  endfacet
  facet normal -0.532032 0.846724 0
    outer loop
      vertex 3.86156 -8.01862 5
      vertex 5.54906 -6.9583 2.1
      vertex 3.86156 -8.01862 2.1
    endloop
  endfacet
  facet normal -0.707107 0.707107 0
    outer loop
      vertex 6.9583 -5.54906 5
      vertex 6.9583 -5.54906 2.1
      vertex 5.54906 -6.9583 5
    endloop
  endfacet
  facet normal -0.707107 0.707107 0
    outer loop
      vertex 5.54906 -6.9583 5
      vertex 6.9583 -5.54906 2.1
      vertex 5.54906 -6.9583 2.1
    endloop
  endfacet
  facet normal -0.846724 0.532032 0
    outer loop
      vertex 8.01862 -3.86156 5
      vertex 8.01862 -3.86156 2.1
      vertex 6.9583 -5.54906 5
    endloop
  endfacet
  facet normal -0.846724 0.532032 0
    outer loop
      vertex 6.9583 -5.54906 5
      vertex 8.01862 -3.86156 2.1
      vertex 6.9583 -5.54906 2.1
    endloop
  endfacet
  facet normal -0.943883 0.330279 0
    outer loop
      vertex 8.67686 -1.98044 5
      vertex 8.67686 -1.98044 2.1
      vertex 8.01862 -3.86156 5
    endloop
  endfacet
  facet normal -0.943883 0.330279 0
    outer loop
      vertex 8.01862 -3.86156 5
      vertex 8.67686 -1.98044 2.1
      vertex 8.01862 -3.86156 2.1
    endloop
  endfacet
  facet normal -0.993712 0.111965 0
    outer loop
      vertex 8.9 0 5
      vertex 8.9 0 2.1
      vertex 8.67686 -1.98044 5
    endloop
  endfacet
  facet normal -0.993712 0.111965 0
    outer loop
      vertex 8.67686 -1.98044 5
      vertex 8.9 0 2.1
      vertex 8.67686 -1.98044 2.1
    endloop
  endfacet
  facet normal -0.993712 -0.111965 0
    outer loop
      vertex 8.9 0 5
      vertex 8.67686 1.98044 5
      vertex 8.9 0 2.1
    endloop
  endfacet
  facet normal -0.993712 -0.111965 0
    outer loop
      vertex 8.9 0 2.1
      vertex 8.67686 1.98044 5
      vertex 8.67686 1.98044 2.1
    endloop
  endfacet
  facet normal -0.943883 -0.330279 0
    outer loop
      vertex 8.67686 1.98044 5
      vertex 8.01862 3.86156 5
      vertex 8.67686 1.98044 2.1
    endloop
  endfacet
  facet normal -0.943883 -0.330279 0
    outer loop
      vertex 8.67686 1.98044 2.1
      vertex 8.01862 3.86156 5
      vertex 8.01862 3.86156 2.1
    endloop
  endfacet
  facet normal -0.846724 -0.532032 0
    outer loop
      vertex 8.01862 3.86156 5
      vertex 6.9583 5.54906 5
      vertex 8.01862 3.86156 2.1
    endloop
  endfacet
  facet normal -0.846724 -0.532032 0
    outer loop
      vertex 8.01862 3.86156 2.1
      vertex 6.9583 5.54906 5
      vertex 6.9583 5.54906 2.1
    endloop
  endfacet
  facet normal -0.707107 -0.707107 0
    outer loop
      vertex 6.9583 5.54906 2.1
      vertex 6.9583 5.54906 5
      vertex 5.54906 6.9583 5
    endloop
  endfacet
  facet normal -0.707107 -0.707107 0
    outer loop
      vertex 5.54906 6.9583 2.1
      vertex 6.9583 5.54906 2.1
      vertex 5.54906 6.9583 5
    endloop
  endfacet
  facet normal -0.532032 -0.846724 0
    outer loop
      vertex 5.54906 6.9583 2.1
      vertex 5.54906 6.9583 5
      vertex 3.8912 8 5
    endloop
  endfacet
  facet normal -0.532032 -0.846724 0
    outer loop
      vertex 3.86156 8.01862 2.1
      vertex 5.54906 6.9583 2.1
      vertex 3.86156 8.01862 5
    endloop
  endfacet
  facet normal -0.532032 -0.846724 0
    outer loop
      vertex 3.86156 8.01862 5
      vertex 5.54906 6.9583 2.1
      vertex 3.8912 8 5
    endloop
  endfacet
  facet normal 0.330279 -0.943883 0
    outer loop
      vertex -1.98044 8.67686 2.1
      vertex -1.98044 8.67686 5
      vertex -3.86156 8.01862 5
    endloop
  endfacet
  facet normal 0.330279 -0.943883 0
    outer loop
      vertex -3.86156 8.01862 2.1
      vertex -1.98044 8.67686 2.1
      vertex -3.86156 8.01862 5
    endloop
  endfacet
  facet normal -0.330279 -0.943883 0
    outer loop
      vertex 3.86156 8.01862 2.1
      vertex 3.86156 8.01862 5
      vertex 1.98044 8.67686 5
    endloop
  endfacet
  facet normal -0.330279 -0.943883 0
    outer loop
      vertex 1.98044 8.67686 2.1
      vertex 3.86156 8.01862 2.1
      vertex 1.98044 8.67686 5
    endloop
  endfacet
  facet normal -0.111965 -0.993712 0
    outer loop
      vertex 1.98044 8.67686 2.1
      vertex 1.98044 8.67686 5
      vertex 0 8.9 5
    endloop
  endfacet
  facet normal -0.111965 -0.993712 0
    outer loop
      vertex 0 8.9 2.1
      vertex 1.98044 8.67686 2.1
      vertex 0 8.9 5
    endloop
  endfacet
  facet normal 0.111965 -0.993712 0
    outer loop
      vertex 0 8.9 2.1
      vertex 0 8.9 5
      vertex -1.98044 8.67686 5
    endloop
  endfacet
  facet normal 0.111965 -0.993712 0
    outer loop
      vertex -1.98044 8.67686 2.1
      vertex 0 8.9 2.1
      vertex -1.98044 8.67686 5
    endloop
  endfacet
  facet normal 0 0 1
    outer loop
      vertex -8.67686 -1.98044 2.1
      vertex -8.01862 -3.86156 2.1
      vertex -6.9583 -5.54906 2.1
    endloop
  endfacet
  facet normal 0 0 1
    outer loop
      vertex -3.86156 -8.01862 2.1
      vertex -8.67686 -1.98044 2.1
      vertex -5.54906 -6.9583 2.1
    endloop
  endfacet
  facet normal 0 0 1
    outer loop
      vertex -5.54906 -6.9583 2.1
      vertex -8.67686 -1.98044 2.1
      vertex -6.9583 -5.54906 2.1
    endloop
  endfacet
  facet normal 0 0 1
    outer loop
      vertex -1.98044 -8.67686 2.1
      vertex -8.67686 -1.98044 2.1
      vertex -3.86156 -8.01862 2.1
    endloop
  endfacet
  facet normal 0 0 1
    outer loop
      vertex 0 -8.9 2.1
      vertex -8.67686 -1.98044 2.1
      vertex -1.98044 -8.67686 2.1
    endloop
  endfacet
  facet normal 0 0 1
    outer loop
      vertex 1.98044 -8.67686 2.1
      vertex -8.67686 -1.98044 2.1
      vertex 0 -8.9 2.1
    endloop
  endfacet
  facet normal 0 0 1
    outer loop
      vertex 3.86156 -8.01862 2.1
      vertex -8.67686 -1.98044 2.1
      vertex 1.98044 -8.67686 2.1
    endloop
  endfacet
  facet normal 0 0 1
    outer loop
      vertex 5.54906 -6.9583 2.1
      vertex -8.67686 -1.98044 2.1
      vertex 3.86156 -8.01862 2.1
    endloop
  endfacet
  facet normal 0 0 1
    outer loop
      vertex 6.9583 -5.54906 2.1
      vertex -8.67686 -1.98044 2.1
      vertex 5.54906 -6.9583 2.1
    endloop
  endfacet
  facet normal 0 0 1
    outer loop
      vertex 8.01862 -3.86156 2.1
      vertex -8.67686 -1.98044 2.1
      vertex 6.9583 -5.54906 2.1
    endloop
  endfacet
  facet normal 0 0 1
    outer loop
      vertex 8.67686 -1.98044 2.1
      vertex -8.67686 -1.98044 2.1
      vertex 8.01862 -3.86156 2.1
    endloop
  endfacet
  facet normal 0 0 1
    outer loop
      vertex 8.9 0 2.1
      vertex -8.67686 -1.98044 2.1
      vertex 8.67686 -1.98044 2.1
    endloop
  endfacet
  facet normal 0 0 1
    outer loop
      vertex 8.67686 1.98044 2.1
      vertex -8.67686 -1.98044 2.1
      vertex 8.9 0 2.1
    endloop
  endfacet
  facet normal 0 0 1
    outer loop
      vertex 8.01862 3.86156 2.1
      vertex -8.67686 -1.98044 2.1
      vertex 8.67686 1.98044 2.1
    endloop
  endfacet
  facet normal 0 0 1
    outer loop
      vertex 6.9583 5.54906 2.1
      vertex -8.67686 -1.98044 2.1
      vertex 8.01862 3.86156 2.1
    endloop
  endfacet
  facet normal 0 0 1
    outer loop
      vertex 5.54906 6.9583 2.1
      vertex -8.67686 -1.98044 2.1
      vertex 6.9583 5.54906 2.1
    endloop
  endfacet
  facet normal 0 0 1
    outer loop
      vertex 3.86156 8.01862 2.1
      vertex -8.67686 -1.98044 2.1
      vertex 5.54906 6.9583 2.1
    endloop
  endfacet
  facet normal 0 0 1
    outer loop
      vertex 1.98044 8.67686 2.1
      vertex -8.67686 -1.98044 2.1
      vertex 3.86156 8.01862 2.1
    endloop
  endfacet
  facet normal 0 0 1
    outer loop
      vertex 0 8.9 2.1
      vertex -8.67686 -1.98044 2.1
      vertex 1.98044 8.67686 2.1
    endloop
  endfacet
  facet normal 0 0 1
    outer loop
      vertex -1.98044 8.67686 2.1
      vertex -8.67686 -1.98044 2.1
      vertex 0 8.9 2.1
    endloop
  endfacet
  facet normal 0 0 1
    outer loop
      vertex -3.86156 8.01862 2.1
      vertex -8.67686 -1.98044 2.1
      vertex -1.98044 8.67686 2.1
    endloop
  endfacet
  facet normal 0 0 1
    outer loop
      vertex -5.54906 6.9583 2.1
      vertex -8.67686 -1.98044 2.1
      vertex -3.86156 8.01862 2.1
    endloop
  endfacet
  facet normal 0 0 1
    outer loop
      vertex -6.9583 5.54906 2.1
      vertex -8.67686 -1.98044 2.1
      vertex -5.54906 6.9583 2.1
    endloop
  endfacet
  facet normal 0 0 1
    outer loop
      vertex -8.01862 3.86156 2.1
      vertex -8.67686 -1.98044 2.1
      vertex -6.9583 5.54906 2.1
    endloop
  endfacet
  facet normal 0 0 1
    outer loop
      vertex -8.67686 1.98044 2.1
      vertex -8.67686 -1.98044 2.1
      vertex -8.01862 3.86156 2.1
    endloop
  endfacet
  facet normal 0 0 1
    outer loop
      vertex -8.9 0 2.1
      vertex -8.67686 -1.98044 2.1
      vertex -8.67686 1.98044 2.1
    endloop
  endfacet
  facet normal 0.330279 0.943883 0
    outer loop
      vertex -1.98044 -8.67686 5
      vertex -1.98044 -8.67686 2.1
      vertex -3.86156 -8.01862 5
    endloop
  endfacet
  facet normal 0.330279 0.943883 0
    outer loop
      vertex -3.86156 -8.01862 5
      vertex -1.98044 -8.67686 2.1
      vertex -3.86156 -8.01862 2.1
    endloop
  endfacet
  facet normal 0.111965 0.993712 0
    outer loop
      vertex 0 -8.9 5
      vertex 0 -8.9 2.1
      vertex -1.98044 -8.67686 5
    endloop
  endfacet
  facet normal 0.111965 0.993712 0
    outer loop
      vertex -1.98044 -8.67686 5
      vertex 0 -8.9 2.1
      vertex -1.98044 -8.67686 2.1
    endloop
  endfacet
  facet normal -0.111965 0.993712 0
    outer loop
      vertex 1.98044 -8.67686 5
      vertex 1.98044 -8.67686 2.1
      vertex 0 -8.9 5
    endloop
  endfacet
  facet normal -0.111965 0.993712 0
    outer loop
      vertex 0 -8.9 5
      vertex 1.98044 -8.67686 2.1
      vertex 0 -8.9 2.1
    endloop
  endfacet
  facet normal -0.330279 0.943883 0
    outer loop
      vertex 3.86156 -8.01862 5
      vertex 3.86156 -8.01862 2.1
      vertex 1.98044 -8.67686 5
    endloop
  endfacet
  facet normal -0.330279 0.943883 0
    outer loop
      vertex 1.98044 -8.67686 5
      vertex 3.86156 -8.01862 2.1
      vertex 1.98044 -8.67686 2.1
    endloop
  endfacet
endsolid OpenSCAD_Model
