solid OpenSCAD_Model
  facet normal -1 0 0
    outer loop
      vertex 0 0 0
      vertex 0 0 0.4
      vertex 0 8.7 0
    endloop
  endfacet
  facet normal -1 0 0
    outer loop
      vertex 0 8.7 0
      vertex 0 0 0.4
      vertex 0 8.7 0.4
    endloop
  endfacet
  facet normal 0 -1 0
    outer loop
      vertex 0 0 0.4
      vertex 0 0 0
      vertex 9.5 0 0
    endloop
  endfacet
  facet normal 0 -1 0
    outer loop
      vertex 1 0 0.4
      vertex 0 0 0.4
      vertex 9.5 0 0
    endloop
  endfacet
  facet normal 0 -1 0
    outer loop
      vertex 8.5 0 0.4
      vertex 1 0 0.4
      vertex 9.5 0 0
    endloop
  endfacet
  facet normal 0 -1 0
    outer loop
      vertex 9.5 0 0.4
      vertex 8.5 0 0.4
      vertex 9.5 0 0
    endloop
  endfacet
  facet normal 0 -1 0
    outer loop
      vertex 8.5 0 3
      vertex 1 0 0.4
      vertex 8.5 0 0.4
    endloop
  endfacet
  facet normal 0 -1 0
    outer loop
      vertex 1 0 3
      vertex 1 0 0.4
      vertex 8.5 0 3
    endloop
  endfacet
  facet normal 0 0 -1
    outer loop
      vertex 0 0 0
      vertex 0 8.7 0
      vertex 9.5 0 0
    endloop
  endfacet
  facet normal 0 0 -1
    outer loop
      vertex 9.5 0 0
      vertex 0 8.7 0
      vertex 9.5 8.7 0
    endloop
  endfacet
  facet normal 0 1 0
    outer loop
      vertex 0 8.7 0
      vertex 0 8.7 0.4
      vertex 9.5 8.7 0
    endloop
  endfacet
  facet normal 0 1 0
    outer loop
      vertex 9.5 8.7 0
      vertex 0 8.7 0.4
      vertex 9.5 8.7 0.4
    endloop
  endfacet
  facet normal 0 0 1
    outer loop
      vertex 0 8.7 0.4
      vertex 0 0 0.4
      vertex 1 0 0.4
    endloop
  endfacet
  facet normal 0 0 1
    outer loop
      vertex 8.5 7.7 0.4
      vertex 0 8.7 0.4
      vertex 1 7.7 0.4
    endloop
  endfacet
  facet normal 0 0 1
    outer loop
      vertex 1 7.7 0.4
      vertex 0 8.7 0.4
      vertex 1 0 0.4
    endloop
  endfacet
  facet normal 0 0 1
    outer loop
      vertex 9.5 8.7 0.4
      vertex 0 8.7 0.4
      vertex 8.5 7.7 0.4
    endloop
  endfacet
  facet normal 0 0 1
    outer loop
      vertex 9.5 0 0.4
      vertex 8.5 7.7 0.4
      vertex 8.5 0 0.4
    endloop
  endfacet
  facet normal 0 0 1
    outer loop
      vertex 9.5 8.7 0.4
      vertex 8.5 7.7 0.4
      vertex 9.5 0 0.4
    endloop
  endfacet
  facet normal -1 0 0
    outer loop
      vertex 1 0 0.4
      vertex 1 0 3
      vertex 1 7.7 0.4
    endloop
  endfacet
  facet normal -1 0 0
    outer loop
      vertex 1 7.7 0.4
      vertex 1 0 3
      vertex 1 7.7 3
    endloop
  endfacet
  facet normal 0 0 1
    outer loop
      vertex 1 7.7 3
      vertex 1 0 3
      vertex 8.5 0 3
    endloop
  endfacet
  facet normal 0 0 1
    outer loop
      vertex 8.5 7.7 3
      vertex 1 7.7 3
      vertex 8.5 0 3
    endloop
  endfacet
  facet normal 1 0 0
    outer loop
      vertex 8.5 0 3
      vertex 8.5 0 0.4
      vertex 8.5 7.7 0.4
    endloop
  endfacet
  facet normal 1 0 0
    outer loop
      vertex 8.5 7.7 3
      vertex 8.5 0 3
      vertex 8.5 7.7 0.4
    endloop
  endfacet
  facet normal 1 0 0
    outer loop
      vertex 9.5 0 0.4
      vertex 9.5 0 0
      vertex 9.5 8.7 0
    endloop
  endfacet
  facet normal 1 0 0
    outer loop
      vertex 9.5 8.7 0.4
      vertex 9.5 0 0.4
      vertex 9.5 8.7 0
    endloop
  endfacet
  facet normal 0 1 0
    outer loop
      vertex 1 7.7 0.4
      vertex 1 7.7 3
      vertex 8.5 7.7 0.4
    endloop
  endfacet
  facet normal 0 1 0
    outer loop
      vertex 8.5 7.7 0.4
      vertex 1 7.7 3
      vertex 8.5 7.7 3
    endloop
  endfacet
endsolid OpenSCAD_Model
