  0
SECTION
  2
HEADER
  9
$ACADVER
  1
AC1014
  9
$HANDSEED
  5
FFFF
  9
$MEASUREMENT
 70
     1
  0
ENDSEC
  0
SECTION
  2
TABLES
  0
TABLE
  2
VPORT
  5
8
330
0
100
AcDbSymbolTable
 70
     4
  0
VPORT
  5
2E
330
8
100
AcDbSymbolTableRecord
100
AcDbViewportTableRecord
  2
*ACTIVE
 70
     0
 10
0.0
 20
0.0
 11
1.0
 21
1.0
 12
210.0
 22
148.5
 13
0.0
 23
0.0
 14
10.0
 24
10.0
 15
10.0
 25
10.0
 16
0.0
 26
0.0
 36
1.0
 17
0.0
 27
0.0
 37
0.0
 40
341.0
 41
1.24
 42
50.0
 43
0.0
 44
0.0
 50
0.0
 51
0.0
 71
     0
 72
   100
 73
     1
 74
     3
 75
     0
 76
     0
 77
     0
 78
     0
  0
ENDTAB
  0
TABLE
  2
LTYPE
  5
5
330
0
100
AcDbSymbolTable
 70
     1
  0
LTYPE
  5
14
330
5
100
AcDbSymbolTableRecord
100
AcDbLinetypeTableRecord
  2
BYBLOCK
 70
     0
  3

 72
    65
 73
     0
 40
0.0
  0
LTYPE
  5
15
330
5
100
AcDbSymbolTableRecord
100
AcDbLinetypeTableRecord
  2
BYLAYER
 70
     0
  3

 72
    65
 73
     0
 40
0.0
  0
LTYPE
  5
16
330
5
100
AcDbSymbolTableRecord
100
AcDbLinetypeTableRecord
  2
CONTINUOUS
 70
     0
  3
Solid line
 72
    65
 73
     0
 40
0.0
  0
ENDTAB
  0
TABLE
  2
LAYER
  5
2
100
AcDbSymbolTable
 70
2
  0
LAYER
  5
50
100
AcDbSymbolTableRecord
100
AcDbLayerTableRecord
  2
0
 70
0
  6
CONTINUOUS
  0
LAYER
  5
51
100
AcDbSymbolTableRecord
100
AcDbLayerTableRecord
  2
Layer_1
 70
0
  6
CONTINUOUS
  0
ENDTAB
  0
TABLE
  2
STYLE
  5
3
330
0
100
AcDbSymbolTable
 70
     1
  0
STYLE
  5
11
330
3
100
AcDbSymbolTableRecord
100
AcDbTextStyleTableRecord
  2
STANDARD
 70
     0
 40
0.0
 41
1.0
 50
0.0
 71
     0
 42
2.5
  3
txt
  4

  0
ENDTAB
  0
TABLE
  2
VIEW
  5
6
330
0
100
AcDbSymbolTable
 70
     0
  0
ENDTAB
  0
TABLE
  2
UCS
  5
7
330
0
100
AcDbSymbolTable
 70
     0
  0
ENDTAB
  0
TABLE
  2
APPID
  5
9
330
0
100
AcDbSymbolTable
 70
     2
  0
APPID
  5
12
330
9
100
AcDbSymbolTableRecord
100
AcDbRegAppTableRecord
  2
ACAD
 70
     0
  0
ENDTAB
  0
TABLE
  2
DIMSTYLE
  5
A
330
0
100
AcDbSymbolTable
 70
     1
  0
DIMSTYLE
105
27
330
A
100
AcDbSymbolTableRecord
100
AcDbDimStyleTableRecord
  2
ISO-25
 70
     0
  3

  4

  5

  6

  7

 40
1.0
 41
2.5
 42
0.625
 43
3.75
 44
1.25
 45
0.0
 46
0.0
 47
0.0
 48
0.0
140
2.5
141
2.5
142
0.0
143
0.03937007874016
144
1.0
145
0.0
146
1.0
147
0.625
 71
     0
 72
     0
 73
     0
 74
     0
 75
     0
 76
     0
 77
     1
 78
     8
170
     0
171
     3
172
     1
173
     0
174
     0
175
     0
176
     0
177
     0
178
     0
270
     2
271
     2
272
     2
273
     2
274
     3
340
11
275
     0
280
     0
281
     0
282
     0
283
     0
284
     8
285
     0
286
     0
287
     3
288
     0
  0
ENDTAB
  0
TABLE
  2
BLOCK_RECORD
  5
1
330
0
100
AcDbSymbolTable
 70
     1
  0
BLOCK_RECORD
  5
1F
330
1
100
AcDbSymbolTableRecord
100
AcDbBlockTableRecord
  2
*MODEL_SPACE
  0
BLOCK_RECORD
  5
1B
330
1
100
AcDbSymbolTableRecord
100
AcDbBlockTableRecord
  2
*PAPER_SPACE
  0
ENDTAB
  0
ENDSEC
  0
SECTION
  2
BLOCKS
  0
BLOCK
  5
20
330
1F
100
AcDbEntity
  8
0
100
AcDbBlockBegin
  2
*MODEL_SPACE
 70
     0
 10
0.0
 20
0.0
 30
0.0
  3
*MODEL_SPACE
  1

  0
ENDBLK
  5
21
330
1F
100
AcDbEntity
  8
0
100
AcDbBlockEnd
  0
BLOCK
  5
1C
330
1B
100
AcDbEntity
 67
     1
  8
0
100
AcDbBlockBegin
  2
*PAPER_SPACE
  1

  0
ENDBLK
  5
1D
330
1B
100
AcDbEntity
 67
     1
  8
0
100
AcDbBlockEnd
  0
ENDSEC
  0
SECTION
  2
ENTITIES
  0
SPLINE
  5
100
100
AcDbEntity
  8
Layer_1
 62
7
100
AcDbSpline
 70
0
 71
3
 72
10
 73
6
 74
4
 40
0.000000
 40
0.000000
 40
0.000000
 40
0.000000
 40
7.420417
 40
14.814433
 40
22.213443
 40
22.213443
 40
22.213443
 40
22.213443
 10
31.846517
 20
276.251919
 30
0.0
 10
30.178648
 20
274.402282
 30
0.0
 10
26.848846
 20
270.709589
 30
0.0
 10
24.692539
 20
263.205803
 30
0.0
 10
25.902203
 20
258.360349
 30
0.0
 10
26.507239
 20
255.936804
 30
0.0
 11
31.846517
 21
276.251919
 31
0.0
 11
27.317532
 21
270.373919
 31
0.0
 11
25.353991
 21
263.245386
 31
0.0
 11
26.507239
 21
255.936804
 31
0.0
  0
SPLINE
  5
101
100
AcDbEntity
  8
Layer_1
 62
7
100
AcDbSpline
 70
0
 71
3
 72
10
 73
6
 74
4
 40
0.000000
 40
0.000000
 40
0.000000
 40
0.000000
 40
9.797012
 40
19.651787
 40
29.513739
 40
29.513739
 40
29.513739
 40
29.513739
 10
26.507239
 20
255.936804
 30
0.0
 10
28.183179
 20
253.079031
 30
0.0
 10
31.544940
 20
247.346635
 30
0.0
 10
40.545076
 20
242.315562
 30
0.0
 10
47.079592
 20
241.458616
 30
0.0
 10
50.348040
 20
241.029987
 30
0.0
 11
26.507239
 21
255.936804
 31
0.0
 11
32.188948
 21
247.955599
 31
0.0
 11
40.673280
 21
242.942348
 31
0.0
 11
50.348040
 21
241.029987
 31
0.0
  0
SPLINE
  5
102
100
AcDbEntity
  8
Layer_1
 62
7
100
AcDbSpline
 70
0
 71
3
 72
10
 73
6
 74
4
 40
0.000000
 40
0.000000
 40
0.000000
 40
0.000000
 40
10.228373
 40
20.451677
 40
30.617628
 40
30.617628
 40
30.617628
 40
30.617628
 10
50.348040
 20
241.029987
 30
0.0
 10
53.763586
 20
241.203536
 30
0.0
 10
60.592985
 20
241.550547
 30
0.0
 10
70.297046
 20
246.033370
 30
0.0
 10
74.276365
 20
251.658872
 30
0.0
 10
76.260429
 20
254.463712
 30
0.0
 11
50.348040
 21
241.029987
 31
0.0
 11
60.507792
 21
242.212807
 31
0.0
 11
69.690995
 21
246.705547
 31
0.0
 11
76.260429
 21
254.463712
 31
0.0
  0
LINE
  5
103
100
AcDbEntity
  8
Layer_1
 62
7
100
AcDbLine
 10
72.446018
 20
275.397480
 30
0.0
 11
72.087756
 21
275.755933
 31
0.0
  0
LINE
  5
104
100
AcDbEntity
  8
Layer_1
 62
7
100
AcDbLine
 10
72.087756
 20
275.755933
 30
0.0
 11
71.720139
 21
276.107949
 31
0.0
  0
SPLINE
  5
105
100
AcDbEntity
  8
Layer_1
 62
7
100
AcDbSpline
 70
0
 71
3
 72
10
 73
6
 74
4
 40
0.000000
 40
0.000000
 40
0.000000
 40
0.000000
 40
7.525413
 40
15.040641
 40
22.582441
 40
22.582441
 40
22.582441
 40
22.582441
 10
76.260429
 20
254.463712
 30
0.0
 10
77.091950
 20
256.864292
 30
0.0
 10
78.753867
 20
261.662204
 30
0.0
 10
77.194214
 20
269.469610
 30
0.0
 10
74.030611
 20
273.419200
 30
0.0
 10
72.446018
 20
275.397480
 30
0.0
 11
76.260429
 21
254.463712
 31
0.0
 11
78.078903
 21
261.766108
 31
0.0
 11
76.666999
 21
269.147515
 31
0.0
 11
72.446018
 21
275.397480
 31
0.0
  0
SPLINE
  5
106
100
AcDbEntity
  8
Layer_1
 62
7
100
AcDbSpline
 70
0
 71
3
 72
10
 73
6
 74
4
 40
0.000000
 40
0.000000
 40
0.000000
 40
0.000000
 40
3.563593
 40
7.127186
 40
10.690780
 40
10.690780
 40
10.690780
 40
10.690780
 10
30.301838
 20
279.757579
 30
0.0
 10
31.057600
 20
278.841148
 30
0.0
 10
32.569124
 20
277.008287
 30
0.0
 10
34.836410
 20
274.258994
 30
0.0
 10
36.347934
 20
272.426131
 30
0.0
 10
37.103696
 20
271.509700
 30
0.0
 11
30.301838
 21
279.757579
 31
0.0
 11
32.569124
 21
277.008287
 31
0.0
 11
34.836410
 21
274.258994
 31
0.0
 11
37.103696
 21
271.509700
 31
0.0
  0
SPLINE
  5
107
100
AcDbEntity
  8
Layer_1
 62
7
100
AcDbSpline
 70
0
 71
3
 72
10
 73
6
 74
4
 40
0.000000
 40
0.000000
 40
0.000000
 40
0.000000
 40
5.179089
 40
10.358178
 40
15.537267
 40
15.537267
 40
15.537267
 40
15.537267
 10
37.103696
 20
271.509700
 30
0.0
 10
35.771816
 20
270.411325
 30
0.0
 10
33.108057
 20
268.214577
 30
0.0
 10
29.112417
 20
264.919456
 30
0.0
 10
26.448658
 20
262.722707
 30
0.0
 10
25.116778
 20
261.624333
 30
0.0
 11
37.103696
 21
271.509700
 31
0.0
 11
33.108057
 21
268.214577
 31
0.0
 11
29.112417
 21
264.919455
 31
0.0
 11
25.116778
 21
261.624333
 31
0.0
  0
SPLINE
  5
108
100
AcDbEntity
  8
Layer_1
 62
7
100
AcDbSpline
 70
0
 71
3
 72
10
 73
6
 74
4
 40
0.000000
 40
0.000000
 40
0.000000
 40
0.000000
 40
3.563594
 40
7.127188
 40
10.690782
 40
10.690782
 40
10.690782
 40
10.690782
 10
25.116778
 20
261.624333
 30
0.0
 10
24.361016
 20
262.540764
 30
0.0
 10
22.849493
 20
264.373627
 30
0.0
 10
20.582206
 20
267.122921
 30
0.0
 10
19.070683
 20
268.955784
 30
0.0
 10
18.314921
 20
269.872215
 30
0.0
 11
25.116778
 21
261.624333
 31
0.0
 11
22.849492
 21
264.373627
 31
0.0
 11
20.582207
 21
267.122921
 31
0.0
 11
18.314921
 21
269.872215
 31
0.0
  0
LINE
  5
109
100
AcDbEntity
  8
Layer_1
 62
7
100
AcDbLine
 10
30.301838
 20
279.757579
 30
0.0
 11
30.301838
 21
279.757579
 31
0.0
  0
SPLINE
  5
10a
100
AcDbEntity
  8
Layer_1
 62
7
100
AcDbSpline
 70
0
 71
3
 72
10
 73
6
 74
4
 40
0.000000
 40
0.000000
 40
0.000000
 40
0.000000
 40
5.179088
 40
10.358177
 40
15.537265
 40
15.537265
 40
15.537265
 40
15.537265
 10
18.314921
 20
269.872215
 30
0.0
 10
19.646800
 20
270.970589
 30
0.0
 10
22.310560
 20
273.167336
 30
0.0
 10
26.306198
 20
276.462459
 30
0.0
 10
28.969958
 20
278.659206
 30
0.0
 10
30.301838
 20
279.757579
 30
0.0
 11
18.314921
 21
269.872215
 31
0.0
 11
22.310560
 21
273.167336
 31
0.0
 11
26.306199
 21
276.462458
 31
0.0
 11
30.301838
 21
279.757579
 31
0.0
  0
SPLINE
  5
10b
100
AcDbEntity
  8
Layer_1
 62
7
100
AcDbSpline
 70
0
 71
3
 72
10
 73
6
 74
4
 40
0.000000
 40
0.000000
 40
0.000000
 40
0.000000
 40
3.563594
 40
7.127188
 40
10.690781
 40
10.690781
 40
10.690781
 40
10.690781
 10
85.456933
 20
269.683211
 30
0.0
 10
84.716756
 20
268.754147
 30
0.0
 10
83.236401
 20
266.896019
 30
0.0
 10
81.015868
 20
264.108828
 30
0.0
 10
79.535514
 20
262.250700
 30
0.0
 10
78.795337
 20
261.321635
 30
0.0
 11
85.456933
 21
269.683211
 31
0.0
 11
83.236401
 21
266.896019
 31
0.0
 11
81.015868
 21
264.108827
 31
0.0
 11
78.795337
 21
261.321635
 31
0.0
  0
SPLINE
  5
10c
100
AcDbEntity
  8
Layer_1
 62
7
100
AcDbSpline
 70
0
 71
3
 72
10
 73
6
 74
4
 40
0.000000
 40
0.000000
 40
0.000000
 40
0.000000
 40
5.179091
 40
10.358181
 40
15.537271
 40
15.537271
 40
15.537271
 40
15.537271
 10
78.795337
 20
261.321635
 30
0.0
 10
77.445097
 20
262.397360
 30
0.0
 10
74.744617
 20
264.548809
 30
0.0
 10
70.693897
 20
267.775982
 30
0.0
 10
67.993418
 20
269.927431
 30
0.0
 10
66.643179
 20
271.003156
 30
0.0
 11
78.795337
 21
261.321635
 31
0.0
 11
74.744617
 21
264.548809
 31
0.0
 11
70.693897
 21
267.775982
 31
0.0
 11
66.643179
 21
271.003156
 31
0.0
  0
SPLINE
  5
10d
100
AcDbEntity
  8
Layer_1
 62
7
100
AcDbSpline
 70
0
 71
3
 72
10
 73
6
 74
4
 40
0.000000
 40
0.000000
 40
0.000000
 40
0.000000
 40
3.563594
 40
7.127187
 40
10.690781
 40
10.690781
 40
10.690781
 40
10.690781
 10
66.643179
 20
271.003156
 30
0.0
 10
67.383356
 20
271.932220
 30
0.0
 10
68.863711
 20
273.790348
 30
0.0
 10
71.084243
 20
276.577540
 30
0.0
 10
72.564597
 20
278.435667
 30
0.0
 10
73.304775
 20
279.364731
 30
0.0
 11
66.643179
 21
271.003156
 31
0.0
 11
68.863711
 21
273.790348
 31
0.0
 11
71.084242
 21
276.577539
 31
0.0
 11
73.304775
 21
279.364731
 31
0.0
  0
LINE
  5
10e
100
AcDbEntity
  8
Layer_1
 62
7
100
AcDbLine
 10
85.456933
 20
269.683211
 30
0.0
 11
85.456933
 21
269.683211
 31
0.0
  0
SPLINE
  5
10f
100
AcDbEntity
  8
Layer_1
 62
7
100
AcDbSpline
 70
0
 71
3
 72
10
 73
6
 74
4
 40
0.000000
 40
0.000000
 40
0.000000
 40
0.000000
 40
5.179090
 40
10.358180
 40
15.537271
 40
15.537271
 40
15.537271
 40
15.537271
 10
73.304775
 20
279.364731
 30
0.0
 10
74.655014
 20
278.289007
 30
0.0
 10
77.355493
 20
276.137558
 30
0.0
 10
81.406213
 20
272.910384
 30
0.0
 10
84.106693
 20
270.758936
 30
0.0
 10
85.456933
 20
269.683211
 30
0.0
 11
73.304775
 21
279.364731
 31
0.0
 11
77.355493
 21
276.137558
 31
0.0
 11
81.406213
 21
272.910385
 31
0.0
 11
85.456933
 21
269.683211
 31
0.0
  0
SPLINE
  5
110
100
AcDbEntity
  8
Layer_1
 62
7
100
AcDbSpline
 70
0
 71
3
 72
10
 73
6
 74
4
 40
0.000000
 40
0.000000
 40
0.000000
 40
0.000000
 40
3.481278
 40
7.054254
 40
10.672759
 40
10.672759
 40
10.672759
 40
10.672759
 10
48.328413
 20
260.958782
 30
0.0
 10
48.084443
 20
259.785889
 30
0.0
 10
47.590078
 20
257.409209
 30
0.0
 10
44.064999
 20
255.323639
 30
0.0
 10
41.693965
 20
256.025160
 30
0.0
 10
40.500943
 20
256.378141
 30
0.0
 11
48.328413
 21
260.958782
 31
0.0
 11
47.149465
 21
257.683209
 31
0.0
 11
44.081079
 21
255.852591
 31
0.0
 11
40.500943
 21
256.378141
 31
0.0
  0
SPLINE
  5
111
100
AcDbEntity
  8
Layer_1
 62
7
100
AcDbSpline
 70
0
 71
3
 72
10
 73
6
 74
4
 40
0.000000
 40
0.000000
 40
0.000000
 40
0.000000
 40
3.886336
 40
7.702622
 40
11.610356
 40
11.610356
 40
11.610356
 40
11.610356
 10
40.500943
 20
256.378141
 30
0.0
 10
39.482130
 20
257.264401
 30
0.0
 10
37.462870
 20
259.020946
 30
0.0
 10
37.758722
 20
263.581522
 30
0.0
 10
39.990985
 20
265.070409
 30
0.0
 10
41.120330
 20
265.823667
 30
0.0
 11
40.500943
 21
256.378141
 31
0.0
 11
38.008510
 21
259.359983
 31
0.0
 11
38.253274
 21
263.168412
 31
0.0
 11
41.120330
 21
265.823667
 31
0.0
  0
LINE
  5
112
100
AcDbEntity
  8
Layer_1
 62
7
100
AcDbLine
 10
48.328413
 20
260.958782
 30
0.0
 11
48.328413
 21
260.958782
 31
0.0
  0
SPLINE
  5
113
100
AcDbEntity
  8
Layer_1
 62
7
100
AcDbSpline
 70
0
 71
3
 72
10
 73
6
 74
4
 40
0.000000
 40
0.000000
 40
0.000000
 40
0.000000
 40
3.418997
 40
6.750106
 40
10.033112
 40
10.033112
 40
10.033112
 40
10.033112
 10
41.120330
 20
265.823667
 30
0.0
 10
42.274093
 20
266.026278
 30
0.0
 10
44.551959
 20
266.426291
 30
0.0
 10
47.677043
 20
264.286333
 30
0.0
 10
48.112345
 20
262.062575
 30
0.0
 10
48.328413
 20
260.958782
 30
0.0
 11
41.120330
 21
265.823667
 31
0.0
 11
44.536627
 21
265.959509
 31
0.0
 11
47.279885
 21
264.069847
 31
0.0
 11
48.328413
 21
260.958782
 31
0.0
  0
SPLINE
  5
114
100
AcDbEntity
  8
Layer_1
 62
7
100
AcDbSpline
 70
0
 71
3
 72
10
 73
6
 74
4
 40
0.000000
 40
0.000000
 40
0.000000
 40
0.000000
 40
3.481278
 40
7.054254
 40
10.672759
 40
10.672759
 40
10.672759
 40
10.672759
 10
65.664920
 20
260.958782
 30
0.0
 10
65.420951
 20
259.785889
 30
0.0
 10
64.926586
 20
257.409209
 30
0.0
 10
61.401506
 20
255.323639
 30
0.0
 10
59.030473
 20
256.025160
 30
0.0
 10
57.837450
 20
256.378141
 30
0.0
 11
65.664920
 21
260.958782
 31
0.0
 11
64.485973
 21
257.683209
 31
0.0
 11
61.417586
 21
255.852591
 31
0.0
 11
57.837450
 21
256.378141
 31
0.0
  0
SPLINE
  5
115
100
AcDbEntity
  8
Layer_1
 62
7
100
AcDbSpline
 70
0
 71
3
 72
10
 73
6
 74
4
 40
0.000000
 40
0.000000
 40
0.000000
 40
0.000000
 40
3.886336
 40
7.702622
 40
11.610356
 40
11.610356
 40
11.610356
 40
11.610356
 10
57.837450
 20
256.378141
 30
0.0
 10
56.818638
 20
257.264401
 30
0.0
 10
54.799377
 20
259.020946
 30
0.0
 10
55.095230
 20
263.581522
 30
0.0
 10
57.327492
 20
265.070409
 30
0.0
 10
58.456838
 20
265.823667
 30
0.0
 11
57.837450
 21
256.378141
 31
0.0
 11
55.345018
 21
259.359983
 31
0.0
 11
55.589782
 21
263.168412
 31
0.0
 11
58.456838
 21
265.823667
 31
0.0
  0
LINE
  5
116
100
AcDbEntity
  8
Layer_1
 62
7
100
AcDbLine
 10
65.664920
 20
260.958782
 30
0.0
 11
65.664920
 21
260.958782
 31
0.0
  0
SPLINE
  5
117
100
AcDbEntity
  8
Layer_1
 62
7
100
AcDbSpline
 70
0
 71
3
 72
10
 73
6
 74
4
 40
0.000000
 40
0.000000
 40
0.000000
 40
0.000000
 40
3.418997
 40
6.750106
 40
10.033112
 40
10.033112
 40
10.033112
 40
10.033112
 10
58.456838
 20
265.823667
 30
0.0
 10
59.610600
 20
266.026278
 30
0.0
 10
61.888466
 20
266.426291
 30
0.0
 10
65.013551
 20
264.286333
 30
0.0
 10
65.448852
 20
262.062575
 30
0.0
 10
65.664920
 20
260.958782
 30
0.0
 11
58.456838
 21
265.823667
 31
0.0
 11
61.873135
 21
265.959509
 31
0.0
 11
64.616393
 21
264.069847
 31
0.0
 11
65.664920
 21
260.958782
 31
0.0
  0
LINE
  5
118
100
AcDbEntity
  8
Layer_1
 62
7
100
AcDbLine
 10
54.812691
 20
260.757194
 30
0.0
 11
54.812691
 21
260.928898
 31
0.0
  0
LINE
  5
119
100
AcDbEntity
  8
Layer_1
 62
7
100
AcDbLine
 10
54.812691
 20
260.928898
 30
0.0
 11
54.812691
 21
260.958782
 31
0.0
  0
SPLINE
  5
11a
100
AcDbEntity
  8
Layer_1
 62
7
100
AcDbSpline
 70
0
 71
3
 72
10
 73
6
 74
4
 40
0.000000
 40
0.000000
 40
0.000000
 40
0.000000
 40
2.083069
 40
4.166138
 40
6.249207
 40
6.249207
 40
6.249207
 40
6.249207
 10
48.563484
 20
260.757194
 30
0.0
 10
49.257840
 20
260.757194
 30
0.0
 10
50.646553
 20
260.757194
 30
0.0
 10
52.729622
 20
260.757194
 30
0.0
 10
54.118335
 20
260.757194
 30
0.0
 10
54.812691
 20
260.757194
 30
0.0
 11
48.563484
 21
260.757194
 31
0.0
 11
50.646553
 21
260.757194
 31
0.0
 11
52.729622
 21
260.757194
 31
0.0
 11
54.812691
 21
260.757194
 31
0.0
  0
SPLINE
  5
11b
100
AcDbEntity
  8
Layer_1
 62
7
100
AcDbSpline
 70
0
 71
3
 72
10
 73
6
 74
4
 40
0.000000
 40
0.000000
 40
0.000000
 40
0.000000
 40
13.381250
 40
26.762499
 40
40.143749
 40
40.143749
 40
40.143749
 40
40.143749
 10
72.907934
 20
276.950916
 30
0.0
 10
68.447517
 20
276.950916
 30
0.0
 10
59.526684
 20
276.950916
 30
0.0
 10
46.145434
 20
276.950916
 30
0.0
 10
37.224601
 20
276.950916
 30
0.0
 10
32.764185
 20
276.950916
 30
0.0
 11
72.907934
 21
276.950916
 31
0.0
 11
59.526684
 21
276.950916
 31
0.0
 11
46.145434
 21
276.950916
 31
0.0
 11
32.764185
 21
276.950916
 31
0.0
  0
SPLINE
  5
11c
100
AcDbEntity
  8
Layer_1
 62
7
100
AcDbSpline
 70
0
 71
3
 72
10
 73
6
 74
4
 40
0.000000
 40
0.000000
 40
0.000000
 40
0.000000
 40
3.020608
 40
6.307948
 40
8.696953
 40
8.696953
 40
8.696953
 40
8.696953
 10
49.794820
 20
266.018138
 30
0.0
 10
49.897533
 20
267.070772
 30
0.0
 10
50.112030
 20
269.268992
 30
0.0
 10
47.754144
 20
271.456574
 30
0.0
 10
47.552137
 20
273.377304
 30
0.0
 10
47.467119
 20
274.185683
 30
0.0
 11
49.794820
 21
266.018138
 31
0.0
 11
49.661621
 21
269.035808
 31
0.0
 11
47.958990
 21
271.847862
 31
0.0
 11
47.467119
 21
274.185683
 31
0.0
  0
LINE
  5
11d
100
AcDbEntity
  8
Layer_1
 62
7
100
AcDbLine
 10
50.161649
 20
266.469846
 30
0.0
 11
49.794820
 21
266.018138
 31
0.0
  0
LINE
  5
11e
100
AcDbEntity
  8
Layer_1
 62
7
100
AcDbLine
 10
49.794820
 20
266.018138
 30
0.0
 11
49.794820
 21
266.018138
 31
0.0
  0
SPLINE
  5
11f
100
AcDbEntity
  8
Layer_1
 62
7
100
AcDbSpline
 70
0
 71
3
 72
10
 73
6
 74
4
 40
0.000000
 40
0.000000
 40
0.000000
 40
0.000000
 40
2.893596
 40
5.875052
 40
8.765128
 40
8.765128
 40
8.765128
 40
8.765128
 10
47.467119
 20
274.185683
 30
0.0
 10
48.214603
 20
273.561370
 30
0.0
 10
49.732269
 20
272.293789
 30
0.0
 10
50.811489
 20
269.360541
 30
0.0
 10
50.376003
 20
267.423361
 30
0.0
 10
50.161649
 20
266.469846
 30
0.0
 11
47.467119
 21
274.185683
 31
0.0
 11
49.516895
 21
272.143303
 31
0.0
 11
50.524049
 21
269.337110
 31
0.0
 11
50.161649
 21
266.469846
 31
0.0
  0
SPLINE
  5
120
100
AcDbEntity
  8
Layer_1
 62
7
100
AcDbSpline
 70
0
 71
3
 72
10
 73
6
 74
4
 40
0.000000
 40
0.000000
 40
0.000000
 40
0.000000
 40
5.619463
 40
11.201971
 40
16.750530
 40
16.750530
 40
16.750530
 40
16.750530
 10
51.840519
 20
258.502904
 30
0.0
 10
53.490764
 20
257.581339
 30
0.0
 10
56.780401
 20
255.744269
 30
0.0
 10
60.176547
 20
251.071503
 30
0.0
 10
61.229347
 20
247.501896
 30
0.0
 10
61.754142
 20
245.722536
 30
0.0
 11
51.840519
 21
258.502904
 31
0.0
 11
56.534958
 21
255.414116
 31
0.0
 11
59.880589
 21
250.945208
 31
0.0
 11
61.754142
 21
245.722536
 31
0.0
  0
SPLINE
  5
121
100
AcDbEntity
  8
Layer_1
 62
7
100
AcDbSpline
 70
0
 71
3
 72
10
 73
6
 74
4
 40
0.000000
 40
0.000000
 40
0.000000
 40
0.000000
 40
1.239175
 40
2.485491
 40
3.470933
 40
3.470933
 40
3.470933
 40
3.470933
 10
61.754142
 20
245.722536
 30
0.0
 10
61.914231
 20
245.364447
 30
0.0
 10
62.235334
 20
244.646205
 30
0.0
 10
62.253456
 20
243.096486
 30
0.0
 10
61.383437
 20
243.181937
 30
0.0
 10
60.999276
 20
243.219668
 30
0.0
 11
61.754142
 21
245.722536
 31
0.0
 11
62.157822
 21
244.550957
 31
0.0
 11
61.979858
 21
243.317412
 31
0.0
 11
60.999276
 21
243.219668
 31
0.0
  0
SPLINE
  5
122
100
AcDbEntity
  8
Layer_1
 62
7
100
AcDbSpline
 70
0
 71
3
 72
10
 73
6
 74
4
 40
0.000000
 40
0.000000
 40
0.000000
 40
0.000000
 40
1.863365
 40
3.736232
 40
5.608093
 40
5.608093
 40
5.608093
 40
5.608093
 10
60.999276
 20
243.219668
 30
0.0
 10
60.879663
 20
243.829005
 30
0.0
 10
60.639826
 20
245.050786
 30
0.0
 10
60.451454
 20
246.919853
 30
0.0
 10
60.039411
 20
248.102910
 30
0.0
 10
59.833444
 20
248.694279
 30
0.0
 11
60.999276
 21
243.219668
 31
0.0
 11
60.668875
 21
245.053507
 31
0.0
 11
60.379817
 21
246.903933
 31
0.0
 11
59.833444
 21
248.694279
 31
0.0
  0
SPLINE
  5
123
100
AcDbEntity
  8
Layer_1
 62
7
100
AcDbSpline
 70
0
 71
3
 72
10
 73
6
 74
4
 40
0.000000
 40
0.000000
 40
0.000000
 40
0.000000
 40
3.762548
 40
7.537964
 40
11.334740
 40
11.334740
 40
11.334740
 40
11.334740
 10
59.833444
 20
248.694279
 30
0.0
 10
59.246302
 20
249.802196
 30
0.0
 10
58.070009
 20
252.021819
 30
0.0
 10
55.668756
 20
255.017568
 30
0.0
 10
53.523781
 20
256.376315
 30
0.0
 10
52.448267
 20
257.057605
 30
0.0
 11
59.833444
 21
248.694279
 31
0.0
 11
57.967222
 21
251.961385
 31
0.0
 11
55.538839
 21
254.852185
 31
0.0
 11
52.448267
 21
257.057605
 31
0.0
  0
LINE
  5
124
100
AcDbEntity
  8
Layer_1
 62
7
100
AcDbLine
 10
51.840519
 20
258.502904
 30
0.0
 11
51.840519
 21
258.502904
 31
0.0
  0
SPLINE
  5
125
100
AcDbEntity
  8
Layer_1
 62
7
100
AcDbSpline
 70
0
 71
3
 72
10
 73
6
 74
4
 40
0.000000
 40
0.000000
 40
0.000000
 40
0.000000
 40
0.722570
 40
1.392888
 40
2.050544
 40
2.050544
 40
2.050544
 40
2.050544
 10
52.448267
 20
257.057605
 30
0.0
 10
52.230695
 20
257.145155
 30
0.0
 10
51.811284
 20
257.313924
 30
0.0
 10
51.277331
 20
257.986783
 30
0.0
 10
51.653987
 20
258.331961
 30
0.0
 10
51.840519
 20
258.502904
 30
0.0
 11
52.448267
 21
257.057605
 31
0.0
 11
51.810812
 21
257.397836
 31
0.0
 11
51.458108
 21
257.967859
 31
0.0
 11
51.840519
 21
258.502904
 31
0.0
  0
SPLINE
  5
126
100
AcDbEntity
  8
Layer_1
 62
7
100
AcDbSpline
 70
0
 71
3
 72
10
 73
6
 74
4
 40
0.000000
 40
0.000000
 40
0.000000
 40
0.000000
 40
5.969636
 40
11.865039
 40
17.706929
 40
17.706929
 40
17.706929
 40
17.706929
 10
50.966959
 20
258.442746
 30
0.0
 10
49.230003
 20
257.430554
 30
0.0
 10
45.777691
 20
255.418758
 30
0.0
 10
42.387969
 20
250.317697
 30
0.0
 10
41.477538
 20
246.500310
 30
0.0
 10
41.024397
 20
244.600319
 30
0.0
 11
50.966959
 21
258.442746
 31
0.0
 11
46.055031
 21
255.050179
 31
0.0
 11
42.714902
 21
250.192266
 31
0.0
 11
41.024397
 21
244.600319
 31
0.0
  0
SPLINE
  5
127
100
AcDbEntity
  8
Layer_1
 62
7
100
AcDbSpline
 70
0
 71
3
 72
10
 73
6
 74
4
 40
0.000000
 40
0.000000
 40
0.000000
 40
0.000000
 40
1.349178
 40
2.369101
 40
3.724061
 40
3.724061
 40
3.724061
 40
3.724061
 10
41.024397
 20
244.600319
 30
0.0
 10
40.796918
 20
244.084540
 30
0.0
 10
40.397474
 20
243.178853
 30
0.0
 10
42.227044
 20
242.771135
 30
0.0
 10
42.212182
 20
243.774756
 30
0.0
 10
42.203702
 20
244.347360
 30
0.0
 11
41.024397
 21
244.600319
 31
0.0
 11
40.848980
 21
243.262593
 31
0.0
 11
41.844513
 21
243.040877
 31
0.0
 11
42.203702
 21
244.347360
 31
0.0
  0
SPLINE
  5
128
100
AcDbEntity
  8
Layer_1
 62
7
100
AcDbSpline
 70
0
 71
3
 72
10
 73
6
 74
4
 40
0.000000
 40
0.000000
 40
0.000000
 40
0.000000
 40
4.403224
 40
8.867561
 40
13.368135
 40
13.368135
 40
13.368135
 40
13.368135
 10
42.203702
 20
244.347360
 30
0.0
 10
42.432391
 20
245.808163
 30
0.0
 10
42.892942
 20
248.750043
 30
0.0
 10
45.235875
 20
252.670502
 30
0.0
 10
47.396981
 20
254.739247
 30
0.0
 10
48.481902
 20
255.777800
 30
0.0
 11
42.203702
 21
244.347360
 31
0.0
 11
43.159413
 21
248.645616
 31
0.0
 11
45.375807
 21
252.520909
 31
0.0
 11
48.481902
 21
255.777800
 31
0.0
  0
LINE
  5
129
100
AcDbEntity
  8
Layer_1
 62
7
100
AcDbLine
 10
50.966959
 20
258.442746
 30
0.0
 11
50.966959
 21
258.442746
 31
0.0
  0
SPLINE
  5
12a
100
AcDbEntity
  8
Layer_1
 62
7
100
AcDbSpline
 70
0
 71
3
 72
10
 73
6
 74
4
 40
0.000000
 40
0.000000
 40
0.000000
 40
0.000000
 40
1.479598
 40
3.141321
 40
4.130769
 40
4.130769
 40
4.130769
 40
4.130769
 10
48.481902
 20
255.777800
 30
0.0
 10
48.838137
 20
256.090713
 30
0.0
 10
49.594457
 20
256.755056
 30
0.0
 10
51.420058
 20
257.120901
 30
0.0
 10
51.090102
 20
258.083495
 30
0.0
 10
50.966959
 20
258.442746
 30
0.0
 11
48.481902
 21
255.777800
 31
0.0
 11
49.690816
 21
256.630876
 31
0.0
 11
51.127229
 21
257.466364
 31
0.0
 11
50.966959
 21
258.442746
 31
0.0
  0
SPLINE
  5
12b
100
AcDbEntity
  8
Layer_1
 62
7
100
AcDbSpline
 70
0
 71
3
 72
10
 73
6
 74
4
 40
0.000000
 40
0.000000
 40
0.000000
 40
0.000000
 40
1.566061
 40
3.132121
 40
4.698182
 40
4.698182
 40
4.698182
 40
4.698182
 10
51.531889
 20
245.129488
 30
0.0
 10
51.203435
 20
244.723751
 30
0.0
 10
50.546527
 20
243.912276
 30
0.0
 10
49.561163
 20
242.695064
 30
0.0
 10
48.904254
 20
241.883589
 30
0.0
 10
48.575800
 20
241.477852
 30
0.0
 11
51.531889
 21
245.129488
 31
0.0
 11
50.546526
 21
243.912276
 31
0.0
 11
49.561163
 21
242.695064
 31
0.0
 11
48.575800
 21
241.477852
 31
0.0
  0
SPLINE
  5
12c
100
AcDbEntity
  8
Layer_1
 62
7
100
AcDbSpline
 70
0
 71
3
 72
10
 73
6
 74
4
 40
0.000000
 40
0.000000
 40
0.000000
 40
0.000000
 40
1.596288
 40
3.201573
 40
4.758507
 40
4.758507
 40
4.758507
 40
4.758507
 10
54.408445
 20
241.209613
 30
0.0
 10
54.072217
 20
241.621937
 30
0.0
 10
53.397867
 20
242.448909
 30
0.0
 10
52.318244
 20
243.615750
 30
0.0
 10
51.730845
 20
244.492986
 30
0.0
 10
51.441637
 20
244.924897
 30
0.0
 11
54.408445
 21
241.209613
 31
0.0
 11
53.386827
 21
242.436167
 31
0.0
 11
52.340789
 21
243.653847
 31
0.0
 11
51.441637
 21
244.924897
 31
0.0
  0
SPLINE
  5
12d
100
AcDbEntity
  8
Layer_1
 62
7
100
AcDbSpline
 70
0
 71
3
 72
10
 73
6
 74
4
 40
0.000000
 40
0.000000
 40
0.000000
 40
0.000000
 40
4.301930
 40
8.603858
 40
12.905788
 40
12.905788
 40
12.905788
 40
12.905788
 10
51.441637
 20
244.924897
 30
0.0
 10
51.441637
 20
246.358873
 30
0.0
 10
51.441637
 20
249.226826
 30
0.0
 10
51.441637
 20
253.528756
 30
0.0
 10
51.441637
 20
256.396708
 30
0.0
 10
51.441637
 20
257.830685
 30
0.0
 11
51.441637
 21
244.924897
 31
0.0
 11
51.441637
 21
249.226826
 31
0.0
 11
51.441637
 21
253.528755
 31
0.0
 11
51.441637
 21
257.830685
 31
0.0
  0
SPLINE
  5
12e
100
AcDbEntity
  8
Layer_1
 62
7
100
AcDbSpline
 70
0
 71
3
 72
10
 73
6
 74
4
 40
0.000000
 40
0.000000
 40
0.000000
 40
0.000000
 40
0.378122
 40
0.756245
 40
1.134367
 40
1.134367
 40
1.134367
 40
1.134367
 10
51.441637
 20
257.830685
 30
0.0
 10
51.315597
 20
257.830685
 30
0.0
 10
51.063515
 20
257.830685
 30
0.0
 10
50.685393
 20
257.830685
 30
0.0
 10
50.433311
 20
257.830685
 30
0.0
 10
50.307270
 20
257.830685
 30
0.0
 11
51.441637
 21
257.830685
 31
0.0
 11
51.063515
 21
257.830685
 31
0.0
 11
50.685392
 21
257.830685
 31
0.0
 11
50.307270
 21
257.830685
 31
0.0
  0
SPLINE
  5
12f
100
AcDbEntity
  8
Layer_1
 62
7
100
AcDbSpline
 70
0
 71
3
 72
10
 73
6
 74
4
 40
0.000000
 40
0.000000
 40
0.000000
 40
0.000000
 40
3.092163
 40
6.445751
 40
8.909127
 40
8.909127
 40
8.909127
 40
8.909127
 10
53.920576
 20
265.989134
 30
0.0
 10
53.815576
 20
267.064393
 30
0.0
 10
53.596700
 20
269.305817
 30
0.0
 10
55.952127
 20
271.585561
 30
0.0
 10
56.152988
 20
273.552550
 30
0.0
 10
56.238049
 20
274.385533
 30
0.0
 11
53.920576
 21
265.989134
 31
0.0
 11
54.048128
 21
269.078665
 31
0.0
 11
55.743085
 21
271.972395
 31
0.0
 11
56.238049
 21
274.385533
 31
0.0
  0
LINE
  5
130
100
AcDbEntity
  8
Layer_1
 62
7
100
AcDbLine
 10
53.303059
 20
266.998725
 30
0.0
 11
53.555357
 21
266.453499
 31
0.0
  0
LINE
  5
131
100
AcDbEntity
  8
Layer_1
 62
7
100
AcDbLine
 10
53.555357
 20
266.453499
 30
0.0
 11
53.920576
 21
265.989134
 31
0.0
  0
LINE
  5
132
100
AcDbEntity
  8
Layer_1
 62
7
100
AcDbLine
 10
53.920576
 20
265.989134
 30
0.0
 11
53.920576
 21
265.989134
 31
0.0
  0
SPLINE
  5
133
100
AcDbEntity
  8
Layer_1
 62
7
100
AcDbSpline
 70
0
 71
3
 72
10
 73
6
 74
4
 40
0.000000
 40
0.000000
 40
0.000000
 40
0.000000
 40
2.762487
 40
5.599932
 40
8.387778
 40
8.387778
 40
8.387778
 40
8.387778
 10
56.238049
 20
274.385533
 30
0.0
 10
55.524594
 20
273.786018
 30
0.0
 10
54.078326
 20
272.570720
 30
0.0
 10
53.050752
 20
269.809680
 30
0.0
 10
53.219453
 20
267.930186
 30
0.0
 10
53.303059
 20
266.998725
 30
0.0
 11
56.238049
 21
274.385533
 31
0.0
 11
54.282688
 21
272.434149
 31
0.0
 11
53.262936
 21
269.786282
 31
0.0
 11
53.303059
 21
266.998725
 31
0.0
  0
SPLINE
  5
134
100
AcDbEntity
  8
Layer_1
 62
7
100
AcDbSpline
 70
0
 71
3
 72
10
 73
6
 74
4
 40
0.000000
 40
0.000000
 40
0.000000
 40
0.000000
 40
1.734014
 40
3.394839
 40
5.100970
 40
5.100970
 40
5.100970
 40
5.100970
 10
53.431555
 20
256.548010
 30
0.0
 10
53.286821
 20
255.947352
 30
0.0
 10
53.003461
 20
254.771387
 30
0.0
 10
50.884635
 20
254.319060
 30
0.0
 10
50.198350
 20
255.318731
 30
0.0
 10
49.850590
 20
255.825293
 30
0.0
 11
53.431555
 21
256.548010
 31
0.0
 11
52.703381
 21
254.974300
 31
0.0
 11
51.076762
 21
254.638960
 31
0.0
 11
49.850590
 21
255.825293
 31
0.0
  0
SPLINE
  5
135
100
AcDbEntity
  8
Layer_1
 62
7
100
AcDbSpline
 70
0
 71
3
 72
10
 73
6
 74
4
 40
0.000000
 40
0.000000
 40
0.000000
 40
0.000000
 40
1.790376
 40
3.511430
 40
5.234198
 40
5.234198
 40
5.234198
 40
5.234198
 10
49.850590
 20
255.825293
 30
0.0
 10
49.786823
 20
256.455369
 30
0.0
 10
49.661759
 20
257.691126
 30
0.0
 10
51.532089
 20
258.915649
 30
0.0
 10
52.530503
 20
258.163873
 30
0.0
 10
53.029958
 20
257.787798
 30
0.0
 11
49.850590
 21
255.825293
 31
0.0
 11
50.017994
 21
257.607825
 31
0.0
 11
51.473493
 21
258.526274
 31
0.0
 11
53.029958
 21
257.787798
 31
0.0
  0
LINE
  5
136
100
AcDbEntity
  8
Layer_1
 62
7
100
AcDbLine
 10
53.431555
 20
256.548010
 30
0.0
 11
53.431555
 21
256.548010
 31
0.0
  0
SPLINE
  5
137
100
AcDbEntity
  8
Layer_1
 62
7
100
AcDbSpline
 70
0
 71
3
 72
10
 73
6
 74
4
 40
0.000000
 40
0.000000
 40
0.000000
 40
0.000000
 40
0.438757
 40
0.880048
 40
1.322796
 40
1.322796
 40
1.322796
 40
1.322796
 10
53.029958
 20
257.787798
 30
0.0
 10
53.108984
 20
257.664272
 30
0.0
 10
53.267491
 20
257.416505
 30
0.0
 10
53.404139
 20
256.990410
 30
0.0
 10
53.422406
 20
256.695639
 30
0.0
 10
53.431555
 20
256.548010
 30
0.0
 11
53.029958
 21
257.787798
 31
0.0
 11
53.250232
 21
257.408342
 31
0.0
 11
53.385785
 21
256.988385
 31
0.0
 11
53.431555
 21
256.548010
 31
0.0
  0
SPLINE
  5
138
100
AcDbEntity
  8
Layer_1
 62
7
100
AcDbSpline
 70
0
 71
3
 72
10
 73
6
 74
4
 40
0.000000
 40
0.000000
 40
0.000000
 40
0.000000
 40
0.908874
 40
2.052479
 40
3.353678
 40
3.353678
 40
3.353678
 40
3.353678
 10
26.425838
 20
229.467552
 30
0.0
 10
26.142849
 20
229.688704
 30
0.0
 10
25.503786
 20
230.188124
 30
0.0
 10
26.592176
 20
231.214812
 30
0.0
 10
26.439411
 20
232.043916
 30
0.0
 10
26.358104
 20
232.485190
 30
0.0
 11
26.425838
 21
229.467552
 31
0.0
 11
25.832799
 21
230.156288
 31
0.0
 11
26.333996
 21
231.184215
 31
0.0
 11
26.358104
 21
232.485190
 31
0.0
  0
SPLINE
  5
139
100
AcDbEntity
  8
Layer_1
 62
7
100
AcDbSpline
 70
0
 71
3
 72
10
 73
6
 74
4
 40
0.000000
 40
0.000000
 40
0.000000
 40
0.000000
 40
1.167789
 40
2.233899
 40
3.217622
 40
3.217622
 40
3.217622
 40
3.217622
 10
26.358104
 20
232.485190
 30
0.0
 10
26.362401
 20
232.868827
 30
0.0
 10
26.370620
 20
233.602696
 30
0.0
 10
26.428790
 20
234.747643
 30
0.0
 10
25.915711
 20
235.245572
 30
0.0
 10
25.669482
 20
235.484530
 30
0.0
 11
26.358104
 21
232.485190
 31
0.0
 11
26.379785
 21
233.652778
 31
0.0
 11
26.281468
 21
234.714345
 31
0.0
 11
25.669482
 21
235.484530
 31
0.0
  0
SPLINE
  5
13a
100
AcDbEntity
  8
Layer_1
 62
7
100
AcDbSpline
 70
0
 71
3
 72
10
 73
6
 74
4
 40
0.000000
 40
0.000000
 40
0.000000
 40
0.000000
 40
1.329095
 40
2.917868
 40
4.431971
 40
4.431971
 40
4.431971
 40
4.431971
 10
25.669482
 20
235.484530
 30
0.0
 10
26.055940
 20
235.726850
 30
0.0
 10
26.904360
 20
236.258835
 30
0.0
 10
28.441347
 20
236.029645
 30
0.0
 10
29.455782
 20
235.890900
 30
0.0
 10
29.950793
 20
235.823196
 30
0.0
 11
25.669482
 21
235.484530
 31
0.0
 11
26.862774
 21
236.069806
 31
0.0
 11
28.451085
 21
236.031476
 31
0.0
 11
29.950793
 21
235.823196
 31
0.0
  0
SPLINE
  5
13b
100
AcDbEntity
  8
Layer_1
 62
7
100
AcDbSpline
 70
0
 71
3
 72
10
 73
6
 74
4
 40
0.000000
 40
0.000000
 40
0.000000
 40
0.000000
 40
2.889592
 40
5.826206
 40
8.669344
 40
8.669344
 40
8.669344
 40
8.669344
 10
29.950793
 20
235.823196
 30
0.0
 10
30.681692
 20
235.137520
 30
0.0
 10
32.155382
 20
233.755009
 30
0.0
 10
31.585993
 20
230.167959
 30
0.0
 10
29.555764
 20
229.698490
 30
0.0
 10
28.557067
 20
229.467552
 30
0.0
 11
29.950793
 21
235.823196
 31
0.0
 11
31.686863
 21
233.513260
 31
0.0
 11
31.153743
 21
230.625444
 31
0.0
 11
28.557067
 21
229.467552
 31
0.0
  0
LINE
  5
13c
100
AcDbEntity
  8
Layer_1
 62
7
100
AcDbLine
 10
26.425838
 20
229.467552
 30
0.0
 11
26.425838
 21
229.467552
 31
0.0
  0
SPLINE
  5
13d
100
AcDbEntity
  8
Layer_1
 62
7
100
AcDbSpline
 70
0
 71
3
 72
10
 73
6
 74
4
 40
0.000000
 40
0.000000
 40
0.000000
 40
0.000000
 40
0.710410
 40
1.420820
 40
2.131229
 40
2.131229
 40
2.131229
 40
2.131229
 10
28.557067
 20
229.467552
 30
0.0
 10
28.320264
 20
229.467552
 30
0.0
 10
27.846657
 20
229.467552
 30
0.0
 10
27.136247
 20
229.467552
 30
0.0
 10
26.662641
 20
229.467552
 30
0.0
 10
26.425838
 20
229.467552
 30
0.0
 11
28.557067
 21
229.467552
 31
0.0
 11
27.846657
 21
229.467552
 31
0.0
 11
27.136247
 21
229.467552
 31
0.0
 11
26.425838
 21
229.467552
 31
0.0
  0
SPLINE
  5
13e
100
AcDbEntity
  8
Layer_1
 62
7
100
AcDbSpline
 70
0
 71
3
 72
10
 73
6
 74
4
 40
0.000000
 40
0.000000
 40
0.000000
 40
0.000000
 40
1.524770
 40
3.207183
 40
4.385307
 40
4.385307
 40
4.385307
 40
4.385307
 10
30.602726
 20
232.933241
 30
0.0
 10
30.497981
 20
233.446178
 30
0.0
 10
30.277661
 20
234.525084
 30
0.0
 10
28.585704
 20
235.308051
 30
0.0
 10
27.807500
 20
234.668411
 30
0.0
 10
27.486993
 20
234.404973
 30
0.0
 11
30.602726
 21
232.933241
 31
0.0
 11
30.058601
 21
234.357618
 31
0.0
 11
28.503719
 21
235.000158
 31
0.0
 11
27.486993
 21
234.404973
 31
0.0
  0
SPLINE
  5
13f
100
AcDbEntity
  8
Layer_1
 62
7
100
AcDbSpline
 70
0
 71
3
 72
10
 73
6
 74
4
 40
0.000000
 40
0.000000
 40
0.000000
 40
0.000000
 40
1.269511
 40
2.539021
 40
3.808532
 40
3.808532
 40
3.808532
 40
3.808532
 10
27.486993
 20
234.404973
 30
0.0
 10
27.486993
 20
233.981803
 30
0.0
 10
27.486993
 20
233.135462
 30
0.0
 10
27.486993
 20
231.865952
 30
0.0
 10
27.486993
 20
231.019611
 30
0.0
 10
27.486993
 20
230.596441
 30
0.0
 11
27.486993
 21
234.404973
 31
0.0
 11
27.486993
 21
233.135462
 31
0.0
 11
27.486993
 21
231.865952
 31
0.0
 11
27.486993
 21
230.596441
 31
0.0
  0
LINE
  5
140
100
AcDbEntity
  8
Layer_1
 62
7
100
AcDbLine
 10
30.602726
 20
232.933241
 30
0.0
 11
30.602726
 21
232.933241
 31
0.0
  0
SPLINE
  5
141
100
AcDbEntity
  8
Layer_1
 62
7
100
AcDbSpline
 70
0
 71
3
 72
10
 73
6
 74
4
 40
0.000000
 40
0.000000
 40
0.000000
 40
0.000000
 40
1.614708
 40
2.995855
 40
4.653630
 40
4.653630
 40
4.653630
 40
4.653630
 10
27.486993
 20
230.596441
 30
0.0
 10
28.018291
 20
230.564202
 30
0.0
 10
29.004036
 20
230.504388
 30
0.0
 10
30.642120
 20
231.205267
 30
0.0
 10
30.616631
 20
232.323325
 30
0.0
 10
30.602726
 20
232.933241
 30
0.0
 11
27.486993
 21
230.596441
 31
0.0
 11
29.100872
 21
230.648175
 31
0.0
 11
30.318526
 21
231.300008
 31
0.0
 11
30.602726
 21
232.933241
 31
0.0
  0
SPLINE
  5
142
100
AcDbEntity
  8
Layer_1
 62
7
100
AcDbSpline
 70
0
 71
3
 72
10
 73
6
 74
4
 40
0.000000
 40
0.000000
 40
0.000000
 40
0.000000
 40
0.988927
 40
2.340710
 40
3.791956
 40
3.791956
 40
3.791956
 40
3.791956
 10
38.421518
 20
230.596441
 30
0.0
 10
38.720631
 20
230.288943
 30
0.0
 10
39.428607
 20
229.561121
 30
0.0
 10
37.284933
 20
229.204566
 30
0.0
 10
36.945534
 20
230.168587
 30
0.0
 10
36.769813
 20
230.667702
 30
0.0
 11
38.421518
 21
230.596441
 31
0.0
 11
38.956287
 21
229.764576
 31
0.0
 11
37.630765
 21
229.499422
 31
0.0
 11
36.769813
 21
230.667702
 31
0.0
  0
SPLINE
  5
143
100
AcDbEntity
  8
Layer_1
 62
7
100
AcDbSpline
 70
0
 71
3
 72
10
 73
6
 74
4
 40
0.000000
 40
0.000000
 40
0.000000
 40
0.000000
 40
1.497311
 40
2.691656
 40
3.980395
 40
3.980395
 40
3.980395
 40
3.980395
 10
36.769813
 20
230.667702
 30
0.0
 10
36.508460
 20
231.092291
 30
0.0
 10
36.038636
 20
231.855559
 30
0.0
 10
34.246553
 20
232.163403
 30
0.0
 10
34.327036
 20
231.134210
 30
0.0
 10
34.368807
 20
230.600050
 30
0.0
 11
36.769813
 21
230.667702
 31
0.0
 11
35.756134
 21
231.769699
 31
0.0
 11
34.566314
 21
231.873565
 31
0.0
 11
34.368807
 21
230.600050
 31
0.0
  0
SPLINE
  5
144
100
AcDbEntity
  8
Layer_1
 62
7
100
AcDbSpline
 70
0
 71
3
 72
10
 73
6
 74
4
 40
0.000000
 40
0.000000
 40
0.000000
 40
0.000000
 40
1.106104
 40
1.982124
 40
3.262276
 40
3.262276
 40
3.262276
 40
3.262276
 10
34.368807
 20
230.600050
 30
0.0
 10
34.871661
 20
230.523262
 30
0.0
 10
35.772768
 20
230.385659
 30
0.0
 10
34.713963
 20
229.213809
 30
0.0
 10
33.991139
 20
229.373024
 30
0.0
 10
33.561987
 20
229.467552
 30
0.0
 11
34.368807
 21
230.600050
 31
0.0
 11
35.396421
 21
230.190813
 31
0.0
 11
34.841329
 21
229.513108
 31
0.0
 11
33.561987
 21
229.467552
 31
0.0
  0
SPLINE
  5
145
100
AcDbEntity
  8
Layer_1
 62
7
100
AcDbSpline
 70
0
 71
3
 72
10
 73
6
 74
4
 40
0.000000
 40
0.000000
 40
0.000000
 40
0.000000
 40
1.081865
 40
1.793914
 40
2.680319
 40
2.680319
 40
2.680319
 40
2.680319
 10
33.561987
 20
229.467552
 30
0.0
 10
33.077018
 20
229.464314
 30
0.0
 10
32.272858
 20
229.458946
 30
0.0
 10
32.725201
 20
230.522322
 30
0.0
 10
33.056307
 20
230.901361
 30
0.0
 10
33.239918
 20
231.111553
 30
0.0
 11
33.561987
 21
229.467552
 31
0.0
 11
32.509663
 21
229.718640
 31
0.0
 11
32.707949
 21
230.402524
 31
0.0
 11
33.239918
 21
231.111553
 31
0.0
  0
SPLINE
  5
146
100
AcDbEntity
  8
Layer_1
 62
7
100
AcDbSpline
 70
0
 71
3
 72
10
 73
6
 74
4
 40
0.000000
 40
0.000000
 40
0.000000
 40
0.000000
 40
1.269511
 40
2.539021
 40
3.808532
 40
3.808532
 40
3.808532
 40
3.808532
 10
33.239918
 20
231.111553
 30
0.0
 10
33.239918
 20
231.534723
 30
0.0
 10
33.239918
 20
232.381064
 30
0.0
 10
33.239918
 20
233.650574
 30
0.0
 10
33.239918
 20
234.496915
 30
0.0
 10
33.239918
 20
234.920085
 30
0.0
 11
33.239918
 21
231.111553
 31
0.0
 11
33.239918
 21
232.381064
 31
0.0
 11
33.239918
 21
233.650574
 31
0.0
 11
33.239918
 21
234.920085
 31
0.0
  0
SPLINE
  5
147
100
AcDbEntity
  8
Layer_1
 62
7
100
AcDbSpline
 70
0
 71
3
 72
10
 73
6
 74
4
 40
0.000000
 40
0.000000
 40
0.000000
 40
0.000000
 40
1.035110
 40
2.236886
 40
3.671472
 40
3.671472
 40
3.671472
 40
3.671472
 10
33.239918
 20
234.920085
 30
0.0
 10
32.827053
 20
235.144327
 30
0.0
 10
31.934847
 20
235.628916
 30
0.0
 10
33.746888
 20
236.196799
 30
0.0
 10
34.532073
 20
236.101067
 30
0.0
 10
34.959334
 20
236.048974
 30
0.0
 11
33.239918
 21
234.920085
 31
0.0
 11
32.428780
 21
235.563131
 31
0.0
 11
33.524766
 21
236.056162
 31
0.0
 11
34.959334
 21
236.048974
 31
0.0
  0
SPLINE
  5
148
100
AcDbEntity
  8
Layer_1
 62
7
100
AcDbSpline
 70
0
 71
3
 72
10
 73
6
 74
4
 40
0.000000
 40
0.000000
 40
0.000000
 40
0.000000
 40
2.300535
 40
4.294068
 40
6.140965
 40
6.140965
 40
6.140965
 40
6.140965
 10
34.959334
 20
236.048974
 30
0.0
 10
35.806287
 20
236.048828
 30
0.0
 10
37.387167
 20
236.048556
 30
0.0
 10
38.198291
 20
233.658658
 30
0.0
 10
37.535278
 20
232.528484
 30
0.0
 10
37.216429
 20
231.984974
 30
0.0
 11
34.959334
 21
236.048974
 31
0.0
 11
37.209233
 21
235.568957
 31
0.0
 11
37.902323
 21
233.699785
 31
0.0
 11
37.216429
 21
231.984974
 31
0.0
  0
LINE
  5
149
100
AcDbEntity
  8
Layer_1
 62
7
100
AcDbLine
 10
38.421518
 20
230.596441
 30
0.0
 11
38.421518
 21
230.596441
 31
0.0
  0
SPLINE
  5
14a
100
AcDbEntity
  8
Layer_1
 62
7
100
AcDbSpline
 70
0
 71
3
 72
10
 73
6
 74
4
 40
0.000000
 40
0.000000
 40
0.000000
 40
0.000000
 40
0.622604
 40
1.299081
 40
1.854016
 40
1.854016
 40
1.854016
 40
1.854016
 10
37.216429
 20
231.984974
 30
0.0
 10
37.367593
 20
231.840648
 30
0.0
 10
37.683002
 20
231.539508
 30
0.0
 10
37.924735
 20
230.944009
 30
0.0
 10
38.267191
 20
230.704414
 30
0.0
 10
38.421518
 20
230.596441
 30
0.0
 11
37.216429
 21
231.984974
 31
0.0
 11
37.636379
 21
231.525325
 31
0.0
 11
37.995478
 21
230.952027
 31
0.0
 11
38.421518
 21
230.596441
 31
0.0
  0
SPLINE
  5
14b
100
AcDbEntity
  8
Layer_1
 62
7
100
AcDbSpline
 70
0
 71
3
 72
10
 73
6
 74
4
 40
0.000000
 40
0.000000
 40
0.000000
 40
0.000000
 40
1.815073
 40
3.006276
 40
4.692066
 40
4.692066
 40
4.692066
 40
4.692066
 10
34.368807
 20
233.102574
 30
0.0
 10
35.040596
 20
233.006139
 30
0.0
 10
36.153269
 20
232.846414
 30
0.0
 10
36.958615
 20
234.903498
 30
0.0
 10
35.689808
 20
234.913957
 30
0.0
 10
34.946344
 20
234.920085
 30
0.0
 11
34.368807
 21
233.102574
 31
0.0
 11
36.166668
 21
233.351940
 31
0.0
 11
36.571554
 21
234.472223
 31
0.0
 11
34.946344
 21
234.920085
 31
0.0
  0
LINE
  5
14c
100
AcDbEntity
  8
Layer_1
 62
7
100
AcDbLine
 10
34.368807
 20
233.102574
 30
0.0
 11
34.368807
 21
233.102574
 31
0.0
  0
SPLINE
  5
14d
100
AcDbEntity
  8
Layer_1
 62
7
100
AcDbSpline
 70
0
 71
3
 72
10
 73
6
 74
4
 40
0.000000
 40
0.000000
 40
0.000000
 40
0.000000
 40
0.621076
 40
1.440023
 40
2.242245
 40
2.242245
 40
2.242245
 40
2.242245
 10
34.946344
 20
234.920085
 30
0.0
 10
34.703550
 20
234.887498
 30
0.0
 10
34.140609
 20
234.811940
 30
0.0
 10
34.429104
 20
233.868527
 30
0.0
 10
34.388767
 20
233.356129
 30
0.0
 10
34.368807
 20
233.102574
 30
0.0
 11
34.946344
 21
234.920085
 31
0.0
 11
34.357142
 21
234.723673
 31
0.0
 11
34.367735
 21
233.904795
 31
0.0
 11
34.368807
 21
233.102574
 31
0.0
  0
SPLINE
  5
14e
100
AcDbEntity
  8
Layer_1
 62
7
100
AcDbSpline
 70
0
 71
3
 72
10
 73
6
 74
4
 40
0.000000
 40
0.000000
 40
0.000000
 40
0.000000
 40
1.842907
 40
3.797893
 40
5.181445
 40
5.181445
 40
5.181445
 40
5.181445
 10
45.032396
 20
233.915374
 30
0.0
 10
44.882826
 20
233.218439
 30
0.0
 10
44.574590
 20
231.782183
 30
0.0
 10
42.397903
 20
232.187976
 30
0.0
 10
41.586767
 20
231.375299
 30
0.0
 10
41.250618
 20
231.038511
 30
0.0
 11
45.032396
 21
233.915374
 31
0.0
 11
44.280592
 21
232.232788
 31
0.0
 11
42.360628
 21
231.864400
 31
0.0
 11
41.250618
 21
231.038511
 31
0.0
  0
SPLINE
  5
14f
100
AcDbEntity
  8
Layer_1
 62
7
100
AcDbSpline
 70
0
 71
3
 72
10
 73
6
 74
4
 40
0.000000
 40
0.000000
 40
0.000000
 40
0.000000
 40
0.901672
 40
2.007128
 40
2.980542
 40
2.980542
 40
2.980542
 40
2.980542
 10
41.250618
 20
231.038511
 30
0.0
 10
41.466386
 20
230.857534
 30
0.0
 10
41.946687
 20
230.454680
 30
0.0
 10
43.503274
 20
230.303475
 30
0.0
 10
42.730203
 20
229.734139
 30
0.0
 10
42.368218
 20
229.467552
 30
0.0
 11
41.250618
 21
231.038511
 31
0.0
 11
42.012535
 21
230.556333
 31
0.0
 11
43.046637
 21
230.165609
 31
0.0
 11
42.368218
 21
229.467552
 31
0.0
  0
SPLINE
  5
150
100
AcDbEntity
  8
Layer_1
 62
7
100
AcDbSpline
 70
0
 71
3
 72
10
 73
6
 74
4
 40
0.000000
 40
0.000000
 40
0.000000
 40
0.000000
 40
1.154305
 40
2.336979
 40
3.341970
 40
3.341970
 40
3.341970
 40
3.341970
 10
42.368218
 20
229.467552
 30
0.0
 10
41.988410
 20
229.485027
 30
0.0
 10
41.219458
 20
229.520407
 30
0.0
 10
40.032612
 20
229.269106
 30
0.0
 10
39.467114
 20
229.791852
 30
0.0
 10
39.207329
 20
230.031996
 30
0.0
 11
42.368218
 21
229.467552
 31
0.0
 11
41.213913
 21
229.468473
 31
0.0
 11
40.031299
 21
229.456600
 31
0.0
 11
39.207329
 21
230.031996
 31
0.0
  0
SPLINE
  5
151
100
AcDbEntity
  8
Layer_1
 62
7
100
AcDbSpline
 70
0
 71
3
 72
10
 73
6
 74
4
 40
0.000000
 40
0.000000
 40
0.000000
 40
0.000000
 40
1.027618
 40
2.076029
 40
3.316059
 40
3.316059
 40
3.316059
 40
3.316059
 10
39.207329
 20
230.031996
 30
0.0
 10
39.504069
 20
230.237618
 30
0.0
 10
40.103552
 20
230.653023
 30
0.0
 10
40.174818
 20
231.844902
 30
0.0
 10
40.140386
 20
232.594254
 30
0.0
 10
40.121729
 20
233.000302
 30
0.0
 11
39.207329
 21
230.031996
 31
0.0
 11
39.961596
 21
230.729908
 31
0.0
 11
40.153151
 21
231.760671
 31
0.0
 11
40.121729
 21
233.000302
 31
0.0
  0
SPLINE
  5
152
100
AcDbEntity
  8
Layer_1
 62
7
100
AcDbSpline
 70
0
 71
3
 72
10
 73
6
 74
4
 40
0.000000
 40
0.000000
 40
0.000000
 40
0.000000
 40
1.240412
 40
2.214121
 40
3.106586
 40
3.106586
 40
3.106586
 40
3.106586
 10
40.121729
 20
233.000302
 30
0.0
 10
40.211837
 20
233.435187
 30
0.0
 10
40.372679
 20
234.211450
 30
0.0
 10
39.575231
 20
235.010324
 30
0.0
 10
39.456176
 20
235.628950
 30
0.0
 10
39.399240
 20
235.924796
 30
0.0
 11
40.121729
 21
233.000302
 31
0.0
 11
40.163191
 21
234.240021
 31
0.0
 11
39.652379
 21
235.068984
 31
0.0
 11
39.399240
 21
235.924796
 31
0.0
  0
SPLINE
  5
153
100
AcDbEntity
  8
Layer_1
 62
7
100
AcDbSpline
 70
0
 71
3
 72
10
 73
6
 74
4
 40
0.000000
 40
0.000000
 40
0.000000
 40
0.000000
 40
1.538822
 40
3.090759
 40
4.617475
 40
4.617475
 40
4.617475
 40
4.617475
 10
39.399240
 20
235.924796
 30
0.0
 10
39.908867
 20
235.977472
 30
0.0
 10
40.932463
 20
236.083273
 30
0.0
 10
42.485246
 20
236.109301
 30
0.0
 10
43.481451
 20
235.843992
 30
0.0
 10
43.975474
 20
235.712424
 30
0.0
 11
39.399240
 21
235.924796
 31
0.0
 11
40.932030
 21
236.060917
 31
0.0
 11
42.483793
 21
236.037615
 31
0.0
 11
43.975474
 21
235.712424
 31
0.0
  0
LINE
  5
154
100
AcDbEntity
  8
Layer_1
 62
7
100
AcDbLine
 10
45.032396
 20
233.915374
 30
0.0
 11
45.032396
 21
233.915374
 31
0.0
  0
SPLINE
  5
155
100
AcDbEntity
  8
Layer_1
 62
7
100
AcDbSpline
 70
0
 71
3
 72
10
 73
6
 74
4
 40
0.000000
 40
0.000000
 40
0.000000
 40
0.000000
 40
0.728874
 40
1.452006
 40
2.180216
 40
2.180216
 40
2.180216
 40
2.180216
 10
43.975474
 20
235.712424
 30
0.0
 10
44.176150
 20
235.572759
 30
0.0
 10
44.575922
 20
235.294529
 30
0.0
 10
44.968682
 20
234.645832
 30
0.0
 10
45.011108
 20
234.159427
 30
0.0
 10
45.032396
 20
233.915374
 30
0.0
 11
43.975474
 21
235.712424
 31
0.0
 11
44.542680
 21
235.254675
 31
0.0
 11
44.913392
 21
234.633795
 31
0.0
 11
45.032396
 21
233.915374
 31
0.0
  0
SPLINE
  5
156
100
AcDbEntity
  8
Layer_1
 62
7
100
AcDbSpline
 70
0
 71
3
 72
10
 73
6
 74
4
 40
0.000000
 40
0.000000
 40
0.000000
 40
0.000000
 40
1.058404
 40
1.969679
 40
2.901897
 40
2.901897
 40
2.901897
 40
2.901897
 10
41.250618
 20
234.920085
 30
0.0
 10
41.246248
 20
234.588164
 30
0.0
 10
41.238115
 20
233.970463
 30
0.0
 10
41.160099
 20
232.742427
 30
0.0
 10
41.904444
 20
232.816674
 30
0.0
 10
42.280845
 20
232.854219
 30
0.0
 11
41.250618
 21
234.920085
 31
0.0
 11
41.224566
 21
233.862001
 31
0.0
 11
41.354655
 21
232.960060
 31
0.0
 11
42.280845
 21
232.854219
 31
0.0
  0
LINE
  5
157
100
AcDbEntity
  8
Layer_1
 62
7
100
AcDbLine
 10
41.250618
 20
234.920085
 30
0.0
 11
41.250618
 21
234.920085
 31
0.0
  0
SPLINE
  5
158
100
AcDbEntity
  8
Layer_1
 62
7
100
AcDbSpline
 70
0
 71
3
 72
10
 73
6
 74
4
 40
0.000000
 40
0.000000
 40
0.000000
 40
0.000000
 40
1.793264
 40
3.093724
 40
4.961594
 40
4.961594
 40
4.961594
 40
4.961594
 10
42.280845
 20
232.854219
 30
0.0
 10
43.067047
 20
233.036409
 30
0.0
 10
44.423396
 20
233.350723
 30
0.0
 10
42.965540
 20
235.135129
 30
0.0
 10
41.886663
 20
234.999843
 30
0.0
 10
41.250618
 20
234.920085
 30
0.0
 11
42.280845
 21
232.854219
 31
0.0
 11
43.878310
 21
233.669019
 31
0.0
 11
43.107338
 21
234.716300
 31
0.0
 11
41.250618
 21
234.920085
 31
0.0
  0
SPLINE
  5
159
100
AcDbEntity
  8
Layer_1
 62
7
100
AcDbSpline
 70
0
 71
3
 72
10
 73
6
 74
4
 40
0.000000
 40
0.000000
 40
0.000000
 40
0.000000
 40
3.279683
 40
6.612799
 40
9.891426
 40
9.891426
 40
9.891426
 40
9.891426
 10
49.216165
 20
236.207019
 30
0.0
 10
50.315570
 20
235.778217
 30
0.0
 10
52.532292
 20
234.913629
 30
0.0
 10
52.531615
 20
230.602092
 30
0.0
 10
50.315227
 20
229.737995
 30
0.0
 10
49.216165
 20
229.309507
 30
0.0
 11
49.216165
 21
236.207019
 31
0.0
 11
51.969008
 21
234.424274
 31
0.0
 11
51.968459
 21
231.091158
 31
0.0
 11
49.216165
 21
229.309507
 31
0.0
  0
LINE
  5
15a
100
AcDbEntity
  8
Layer_1
 62
7
100
AcDbLine
 10
49.216165
 20
236.207019
 30
0.0
 11
49.216165
 21
236.207019
 31
0.0
  0
SPLINE
  5
15b
100
AcDbEntity
  8
Layer_1
 62
7
100
AcDbSpline
 70
0
 71
3
 72
10
 73
6
 74
4
 40
0.000000
 40
0.000000
 40
0.000000
 40
0.000000
 40
3.308027
 40
6.601523
 40
9.915241
 40
9.915241
 40
9.915241
 40
9.915241
 10
49.216165
 20
229.309507
 30
0.0
 10
48.103384
 20
229.739423
 30
0.0
 10
45.882710
 20
230.597366
 30
0.0
 10
45.891746
 20
234.903078
 30
0.0
 10
48.105767
 20
235.771486
 30
0.0
 10
49.216165
 20
236.207019
 30
0.0
 11
49.216165
 21
229.309507
 31
0.0
 11
46.436948
 21
231.103663
 31
0.0
 11
46.440354
 21
234.397157
 31
0.0
 11
49.216165
 21
236.207019
 31
0.0
  0
SPLINE
  5
15c
100
AcDbEntity
  8
Layer_1
 62
7
100
AcDbSpline
 70
0
 71
3
 72
10
 73
6
 74
4
 40
0.000000
 40
0.000000
 40
0.000000
 40
0.000000
 40
2.484262
 40
5.039095
 40
7.440939
 40
7.440939
 40
7.440939
 40
7.440939
 10
49.216165
 20
235.078130
 30
0.0
 10
48.401054
 20
234.670317
 30
0.0
 10
46.747675
 20
233.843106
 30
0.0
 10
47.564953
 20
230.395893
 30
0.0
 10
49.424313
 20
230.681163
 30
0.0
 10
50.325299
 20
230.819396
 30
0.0
 11
49.216165
 21
235.078130
 31
0.0
 11
47.307197
 21
233.488351
 31
0.0
 11
47.931098
 21
231.010868
 31
0.0
 11
50.325299
 21
230.819396
 31
0.0
  0
LINE
  5
15d
100
AcDbEntity
  8
Layer_1
 62
7
100
AcDbLine
 10
49.216165
 20
235.078130
 30
0.0
 11
49.216165
 21
235.078130
 31
0.0
  0
SPLINE
  5
15e
100
AcDbEntity
  8
Layer_1
 62
7
100
AcDbSpline
 70
0
 71
3
 72
10
 73
6
 74
4
 40
0.000000
 40
0.000000
 40
0.000000
 40
0.000000
 40
1.831199
 40
3.666543
 40
5.467728
 40
5.467728
 40
5.467728
 40
5.467728
 10
50.325299
 20
230.819396
 30
0.0
 10
50.712326
 20
231.316614
 30
0.0
 10
51.487258
 20
232.312174
 30
0.0
 10
51.024173
 20
234.445685
 30
0.0
 10
49.815049
 20
234.868639
 30
0.0
 10
49.216165
 20
235.078130
 30
0.0
 11
50.325299
 21
230.819396
 31
0.0
 11
51.215628
 21
232.419585
 31
0.0
 11
50.791745
 21
234.205309
 31
0.0
 11
49.216165
 21
235.078130
 31
0.0
  0
SPLINE
  5
15f
100
AcDbEntity
  8
Layer_1
 62
7
100
AcDbSpline
 70
0
 71
3
 72
10
 73
6
 74
4
 40
0.000000
 40
0.000000
 40
0.000000
 40
0.000000
 40
1.100283
 40
2.060551
 40
3.279337
 40
3.279337
 40
3.279337
 40
3.279337
 10
53.535399
 20
230.031996
 30
0.0
 10
53.838605
 20
230.218880
 30
0.0
 10
54.406435
 20
230.568865
 30
0.0
 10
55.693832
 20
230.806389
 30
0.0
 10
55.518634
 20
231.662783
 30
0.0
 10
55.420643
 20
232.141780
 30
0.0
 11
53.535399
 21
230.031996
 31
0.0
 11
54.513763
 21
230.535410
 31
0.0
 11
55.392192
 21
230.923326
 31
0.0
 11
55.420643
 21
232.141780
 31
0.0
  0
SPLINE
  5
160
100
AcDbEntity
  8
Layer_1
 62
7
100
AcDbSpline
 70
0
 71
3
 72
10
 73
6
 74
4
 40
0.000000
 40
0.000000
 40
0.000000
 40
0.000000
 40
1.095436
 40
2.190871
 40
3.286306
 40
3.286306
 40
3.286306
 40
3.286306
 10
55.420643
 20
232.141780
 30
0.0
 10
55.420643
 20
232.506925
 30
0.0
 10
55.420643
 20
233.237215
 30
0.0
 10
55.420643
 20
234.332651
 30
0.0
 10
55.420643
 20
235.062940
 30
0.0
 10
55.420643
 20
235.428085
 30
0.0
 11
55.420643
 21
232.141780
 31
0.0
 11
55.420643
 21
233.237216
 31
0.0
 11
55.420643
 21
234.332651
 31
0.0
 11
55.420643
 21
235.428085
 31
0.0
  0
SPLINE
  5
161
100
AcDbEntity
  8
Layer_1
 62
7
100
AcDbSpline
 70
0
 71
3
 72
10
 73
6
 74
4
 40
0.000000
 40
0.000000
 40
0.000000
 40
0.000000
 40
1.330521
 40
2.051194
 40
3.365800
 40
3.365800
 40
3.365800
 40
3.365800
 10
55.420643
 20
235.428085
 30
0.0
 10
55.037002
 20
235.025683
 30
0.0
 10
54.445562
 20
234.405320
 30
0.0
 10
53.429329
 20
235.572370
 30
0.0
 10
54.237355
 20
235.960657
 30
0.0
 10
54.759267
 20
236.211455
 30
0.0
 11
55.420643
 21
235.428085
 31
0.0
 11
54.257990
 21
234.781152
 31
0.0
 11
53.787012
 21
235.326633
 31
0.0
 11
54.759267
 21
236.211455
 31
0.0
  0
SPLINE
  5
162
100
AcDbEntity
  8
Layer_1
 62
7
100
AcDbSpline
 70
0
 71
3
 72
10
 73
6
 74
4
 40
0.000000
 40
0.000000
 40
0.000000
 40
0.000000
 40
1.056234
 40
1.886430
 40
2.887206
 40
2.887206
 40
2.887206
 40
2.887206
 10
54.759267
 20
236.211455
 30
0.0
 10
55.043863
 20
236.429713
 30
0.0
 10
55.552150
 20
236.819520
 30
0.0
 10
56.754089
 20
236.565079
 30
0.0
 10
56.621825
 20
235.855678
 30
0.0
 10
56.549532
 20
235.467932
 30
0.0
 11
54.759267
 21
236.211455
 31
0.0
 11
55.699904
 21
236.691905
 31
0.0
 11
56.499180
 21
236.467441
 31
0.0
 11
56.549532
 21
235.467932
 31
0.0
  0
SPLINE
  5
163
100
AcDbEntity
  8
Layer_1
 62
7
100
AcDbSpline
 70
0
 71
3
 72
10
 73
6
 74
4
 40
0.000000
 40
0.000000
 40
0.000000
 40
0.000000
 40
1.623830
 40
3.247661
 40
4.871491
 40
4.871491
 40
4.871491
 40
4.871491
 10
56.549532
 20
235.467932
 30
0.0
 10
56.549532
 20
234.926655
 30
0.0
 10
56.549532
 20
233.844102
 30
0.0
 10
56.549532
 20
232.220271
 30
0.0
 10
56.549532
 20
231.137718
 30
0.0
 10
56.549532
 20
230.596441
 30
0.0
 11
56.549532
 21
235.467932
 31
0.0
 11
56.549532
 21
233.844102
 31
0.0
 11
56.549532
 21
232.220271
 31
0.0
 11
56.549532
 21
230.596441
 31
0.0
  0
SPLINE
  5
164
100
AcDbEntity
  8
Layer_1
 62
7
100
AcDbSpline
 70
0
 71
3
 72
10
 73
6
 74
4
 40
0.000000
 40
0.000000
 40
0.000000
 40
0.000000
 40
1.342141
 40
2.162087
 40
3.420303
 40
3.420303
 40
3.420303
 40
3.420303
 10
56.549532
 20
230.596441
 30
0.0
 10
57.040465
 20
230.705274
 30
0.0
 10
57.831321
 20
230.880596
 30
0.0
 10
58.532206
 20
229.427598
 30
0.0
 10
57.579627
 20
229.452485
 30
0.0
 10
57.002891
 20
229.467552
 30
0.0
 11
56.549532
 21
230.596441
 31
0.0
 11
57.888307
 21
230.501446
 31
0.0
 11
58.227812
 21
229.755090
 31
0.0
 11
57.002891
 21
229.467552
 31
0.0
  0
LINE
  5
165
100
AcDbEntity
  8
Layer_1
 62
7
100
AcDbLine
 10
53.581965
 20
229.785052
 30
0.0
 11
53.535399
 21
230.031996
 31
0.0
  0
LINE
  5
166
100
AcDbEntity
  8
Layer_1
 62
7
100
AcDbLine
 10
53.535399
 20
230.031996
 30
0.0
 11
53.535399
 21
230.031996
 31
0.0
  0
LINE
  5
167
100
AcDbEntity
  8
Layer_1
 62
7
100
AcDbLine
 10
53.535399
 20
230.031996
 30
0.0
 11
53.535399
 21
230.031996
 31
0.0
  0
SPLINE
  5
168
100
AcDbEntity
  8
Layer_1
 62
7
100
AcDbSpline
 70
0
 71
3
 72
10
 73
6
 74
4
 40
0.000000
 40
0.000000
 40
0.000000
 40
0.000000
 40
1.175108
 40
2.363166
 40
3.472902
 40
3.472902
 40
3.472902
 40
3.472902
 10
57.002891
 20
229.467552
 30
0.0
 10
56.612427
 20
229.479257
 30
0.0
 10
55.827196
 20
229.502798
 30
0.0
 10
54.651162
 20
229.346961
 30
0.0
 10
53.930172
 20
229.642378
 30
0.0
 10
53.581965
 20
229.785052
 30
0.0
 11
57.002891
 21
229.467552
 31
0.0
 11
55.827787
 21
229.470627
 31
0.0
 11
54.639908
 21
229.449985
 31
0.0
 11
53.581965
 21
229.785052
 31
0.0
  0
SPLINE
  5
169
100
AcDbEntity
  8
Layer_1
 62
7
100
AcDbSpline
 70
0
 71
3
 72
10
 73
6
 74
4
 40
0.000000
 40
0.000000
 40
0.000000
 40
0.000000
 40
2.626838
 40
5.380840
 40
8.132823
 40
8.132823
 40
8.132823
 40
8.132823
 10
64.108679
 20
233.068707
 30
0.0
 10
64.684264
 20
232.198813
 30
0.0
 10
65.863296
 20
230.416913
 30
0.0
 10
62.291754
 20
228.583389
 30
0.0
 10
60.994864
 20
230.127872
 30
0.0
 10
60.346657
 20
230.899830
 30
0.0
 11
64.108679
 21
233.068707
 31
0.0
 11
64.991282
 21
230.594584
 31
0.0
 11
62.571341
 21
229.279893
 31
0.0
 11
60.346657
 21
230.899830
 31
0.0
  0
SPLINE
  5
16a
100
AcDbEntity
  8
Layer_1
 62
7
100
AcDbSpline
 70
0
 71
3
 72
10
 73
6
 74
4
 40
0.000000
 40
0.000000
 40
0.000000
 40
0.000000
 40
1.326333
 40
2.401609
 40
3.621801
 40
3.621801
 40
3.621801
 40
3.621801
 10
60.346657
 20
230.899830
 30
0.0
 10
60.368344
 20
231.344908
 30
0.0
 10
60.407614
 20
232.150817
 30
0.0
 10
61.440080
 20
233.193054
 30
0.0
 10
60.805391
 20
233.838811
 30
0.0
 10
60.468013
 20
234.182074
 30
0.0
 11
60.346657
 21
230.899830
 31
0.0
 11
60.608553
 21
232.200049
 31
0.0
 11
61.115910
 21
233.148103
 31
0.0
 11
60.468013
 21
234.182074
 31
0.0
  0
LINE
  5
16b
100
AcDbEntity
  8
Layer_1
 62
7
100
AcDbLine
 10
64.853746
 20
233.791196
 30
0.0
 11
64.543302
 21
233.415841
 31
0.0
  0
LINE
  5
16c
100
AcDbEntity
  8
Layer_1
 62
7
100
AcDbLine
 10
64.543302
 20
233.415841
 30
0.0
 11
64.108679
 21
233.068707
 31
0.0
  0
LINE
  5
16d
100
AcDbEntity
  8
Layer_1
 62
7
100
AcDbLine
 10
64.108679
 20
233.068707
 30
0.0
 11
64.108679
 21
233.068707
 31
0.0
  0
LINE
  5
16e
100
AcDbEntity
  8
Layer_1
 62
7
100
AcDbLine
 10
64.108679
 20
233.068707
 30
0.0
 11
64.108679
 21
233.068707
 31
0.0
  0
SPLINE
  5
16f
100
AcDbEntity
  8
Layer_1
 62
7
100
AcDbSpline
 70
0
 71
3
 72
10
 73
6
 74
4
 40
0.000000
 40
0.000000
 40
0.000000
 40
0.000000
 40
2.503622
 40
5.150036
 40
7.603426
 40
7.603426
 40
7.603426
 40
7.603426
 10
60.468013
 20
234.182074
 30
0.0
 10
60.692780
 20
235.085774
 30
0.0
 10
61.155135
 20
236.944714
 30
0.0
 10
64.816852
 20
236.641661
 30
0.0
 10
64.841762
 20
234.717070
 30
0.0
 10
64.853746
 20
233.791196
 30
0.0
 11
60.468013
 21
234.182074
 31
0.0
 11
61.619190
 21
236.405340
 31
0.0
 11
64.255158
 21
236.170444
 31
0.0
 11
64.853746
 21
233.791196
 31
0.0
  0
SPLINE
  5
170
100
AcDbEntity
  8
Layer_1
 62
7
100
AcDbSpline
 70
0
 71
3
 72
10
 73
6
 74
4
 40
0.000000
 40
0.000000
 40
0.000000
 40
0.000000
 40
1.775582
 40
3.219955
 40
4.995853
 40
4.995853
 40
4.995853
 40
4.995853
 10
63.634546
 20
235.258752
 30
0.0
 10
62.866303
 20
235.428143
 30
0.0
 10
61.473122
 20
235.735327
 30
0.0
 10
62.027622
 20
233.078808
 30
0.0
 10
63.225258
 20
233.774454
 30
0.0
 10
63.885724
 20
234.158085
 30
0.0
 11
63.634546
 21
235.258752
 31
0.0
 11
61.862123
 21
235.152880
 31
0.0
 11
62.159855
 21
233.739526
 31
0.0
 11
63.885724
 21
234.158085
 31
0.0
  0
LINE
  5
171
100
AcDbEntity
  8
Layer_1
 62
7
100
AcDbLine
 10
63.634546
 20
235.258752
 30
0.0
 11
63.634546
 21
235.258752
 31
0.0
  0
SPLINE
  5
172
100
AcDbEntity
  8
Layer_1
 62
7
100
AcDbSpline
 70
0
 71
3
 72
10
 73
6
 74
4
 40
0.000000
 40
0.000000
 40
0.000000
 40
0.000000
 40
0.403055
 40
0.806205
 40
1.209315
 40
1.209315
 40
1.209315
 40
1.209315
 10
63.885724
 20
234.158085
 30
0.0
 10
63.926444
 20
234.287379
 30
0.0
 10
64.007893
 20
234.545997
 30
0.0
 10
63.922094
 20
234.967297
 30
0.0
 10
63.730392
 20
235.161604
 30
0.0
 10
63.634546
 20
235.258752
 30
0.0
 11
63.885724
 21
234.158085
 31
0.0
 11
63.973229
 21
234.551527
 31
0.0
 11
63.888463
 21
234.945665
 31
0.0
 11
63.634546
 21
235.258752
 31
0.0
  0
SPLINE
  5
173
100
AcDbEntity
  8
Layer_1
 62
7
100
AcDbSpline
 70
0
 71
3
 72
10
 73
6
 74
4
 40
0.000000
 40
0.000000
 40
0.000000
 40
0.000000
 40
1.650870
 40
3.359499
 40
5.013665
 40
5.013665
 40
5.013665
 40
5.013665
 10
62.754013
 20
232.436530
 30
0.0
 10
62.109669
 20
232.084302
 30
0.0
 10
60.798438
 20
231.367522
 30
0.0
 10
63.317082
 20
229.880027
 30
0.0
 10
63.760660
 20
231.169874
 30
0.0
 10
63.978857
 20
231.804352
 30
0.0
 11
62.754013
 21
232.436530
 31
0.0
 11
61.545147
 21
231.312245
 31
0.0
 11
63.022837
 21
230.454430
 31
0.0
 11
63.978857
 21
231.804352
 31
0.0
  0
LINE
  5
174
100
AcDbEntity
  8
Layer_1
 62
7
100
AcDbLine
 10
62.754013
 20
232.436530
 30
0.0
 11
62.754013
 21
232.436530
 31
0.0
  0
SPLINE
  5
175
100
AcDbEntity
  8
Layer_1
 62
7
100
AcDbSpline
 70
0
 71
3
 72
10
 73
6
 74
4
 40
0.000000
 40
0.000000
 40
0.000000
 40
0.000000
 40
0.477994
 40
0.957037
 40
1.435927
 40
1.435927
 40
1.435927
 40
1.435927
 10
63.978857
 20
231.804352
 30
0.0
 10
63.879948
 20
231.931252
 30
0.0
 10
63.681912
 20
232.185331
 30
0.0
 10
63.233814
 20
232.402459
 30
0.0
 10
62.913929
 20
232.425174
 30
0.0
 10
62.754013
 20
232.436530
 30
0.0
 11
63.978857
 21
231.804352
 31
0.0
 11
63.657029
 21
232.157771
 31
0.0
 11
63.228526
 21
232.371939
 31
0.0
 11
62.754013
 21
232.436530
 31
0.0
  0
SPLINE
  5
176
100
AcDbEntity
  8
Layer_1
 62
7
100
AcDbSpline
 70
0
 71
3
 72
10
 73
6
 74
4
 40
0.000000
 40
0.000000
 40
0.000000
 40
0.000000
 40
2.227145
 40
4.584121
 40
6.961467
 40
6.961467
 40
6.961467
 40
6.961467
 10
69.522935
 20
236.669863
 30
0.0
 10
70.270173
 20
236.387521
 30
0.0
 10
71.808209
 20
235.806379
 30
0.0
 10
72.119718
 20
233.190405
 30
0.0
 10
71.848947
 20
231.666481
 30
0.0
 10
71.712979
 20
230.901241
 30
0.0
 11
69.522935
 21
236.669863
 31
0.0
 11
71.450030
 21
235.553405
 31
0.0
 11
71.999188
 21
233.261296
 31
0.0
 11
71.712979
 21
230.901241
 31
0.0
  0
SPLINE
  5
177
100
AcDbEntity
  8
Layer_1
 62
7
100
AcDbSpline
 70
0
 71
3
 72
10
 73
6
 74
4
 40
0.000000
 40
0.000000
 40
0.000000
 40
0.000000
 40
2.470739
 40
4.897757
 40
7.520651
 40
7.520651
 40
7.520651
 40
7.520651
 10
71.712979
 20
230.901241
 30
0.0
 10
71.137107
 20
230.178930
 30
0.0
 10
69.995554
 20
228.747090
 30
0.0
 10
67.070083
 20
230.255086
 30
0.0
 10
67.072165
 20
232.037273
 30
0.0
 10
67.073246
 20
232.962931
 30
0.0
 11
71.712979
 21
230.901241
 31
0.0
 11
69.791031
 21
229.348608
 31
0.0
 11
67.600493
 21
230.393576
 31
0.0
 11
67.073246
 21
232.962931
 31
0.0
  0
LINE
  5
178
100
AcDbEntity
  8
Layer_1
 62
7
100
AcDbLine
 10
69.522935
 20
236.669863
 30
0.0
 11
69.522935
 21
236.669863
 31
0.0
  0
SPLINE
  5
179
100
AcDbEntity
  8
Layer_1
 62
7
100
AcDbSpline
 70
0
 71
3
 72
10
 73
6
 74
4
 40
0.000000
 40
0.000000
 40
0.000000
 40
0.000000
 40
1.687328
 40
3.312555
 40
4.964640
 40
4.964640
 40
4.964640
 40
4.964640
 10
67.073246
 20
232.962931
 30
0.0
 10
67.075434
 20
233.521786
 30
0.0
 10
67.079729
 20
234.618929
 30
0.0
 10
67.831433
 20
236.293899
 30
0.0
 10
68.956029
 20
236.543859
 30
0.0
 10
69.522935
 20
236.669863
 30
0.0
 11
67.073246
 21
232.962931
 31
0.0
 11
67.208830
 21
234.644802
 31
0.0
 11
67.981895
 21
236.074395
 31
0.0
 11
69.522935
 21
236.669863
 31
0.0
  0
SPLINE
  5
17a
100
AcDbEntity
  8
Layer_1
 62
7
100
AcDbSpline
 70
0
 71
3
 72
10
 73
6
 74
4
 40
0.000000
 40
0.000000
 40
0.000000
 40
0.000000
 40
2.033991
 40
3.673693
 40
5.526044
 40
5.526044
 40
5.526044
 40
5.526044
 10
68.202135
 20
233.599285
 30
0.0
 10
68.135609
 20
232.923072
 30
0.0
 10
68.015453
 20
231.701729
 30
0.0
 10
69.839816
 20
229.891153
 30
0.0
 10
70.481028
 20
231.236674
 30
0.0
 10
70.821157
 20
231.950402
 30
0.0
 11
68.202135
 21
233.599285
 31
0.0
 11
68.411175
 21
231.576064
 31
0.0
 11
69.656804
 21
230.509748
 31
0.0
 11
70.821157
 21
231.950402
 31
0.0
  0
LINE
  5
17b
100
AcDbEntity
  8
Layer_1
 62
7
100
AcDbLine
 10
68.202135
 20
233.599285
 30
0.0
 11
68.202135
 21
233.599285
 31
0.0
  0
SPLINE
  5
17c
100
AcDbEntity
  8
Layer_1
 62
7
100
AcDbSpline
 70
0
 71
3
 72
10
 73
6
 74
4
 40
0.000000
 40
0.000000
 40
0.000000
 40
0.000000
 40
2.388584
 40
4.149746
 40
6.470714
 40
6.470714
 40
6.470714
 40
6.470714
 10
70.821157
 20
231.950402
 30
0.0
 10
70.918335
 20
232.731076
 30
0.0
 10
71.087163
 20
234.087362
 30
0.0
 10
69.101783
 20
236.387128
 30
0.0
 10
68.528235
 20
234.609811
 30
0.0
 10
68.202135
 20
233.599285
 30
0.0
 11
70.821157
 21
231.950402
 31
0.0
 11
70.634911
 21
234.331713
 31
0.0
 11
69.399921
 21
235.587299
 31
0.0
 11
68.202135
 21
233.599285
 31
0.0
  0
SPLINE
  5
17d
100
AcDbEntity
  8
Layer_1
 62
7
100
AcDbSpline
 70
0
 71
3
 72
10
 73
6
 74
4
 40
0.000000
 40
0.000000
 40
0.000000
 40
0.000000
 40
1.100283
 40
2.060551
 40
3.279337
 40
3.279337
 40
3.279337
 40
3.279337
 10
73.842171
 20
230.031996
 30
0.0
 10
74.145378
 20
230.218880
 30
0.0
 10
74.713207
 20
230.568865
 30
0.0
 10
76.000604
 20
230.806389
 30
0.0
 10
75.825407
 20
231.662783
 30
0.0
 10
75.727415
 20
232.141780
 30
0.0
 11
73.842171
 21
230.031996
 31
0.0
 11
74.820535
 21
230.535410
 31
0.0
 11
75.698964
 21
230.923326
 31
0.0
 11
75.727415
 21
232.141780
 31
0.0
  0
SPLINE
  5
17e
100
AcDbEntity
  8
Layer_1
 62
7
100
AcDbSpline
 70
0
 71
3
 72
10
 73
6
 74
4
 40
0.000000
 40
0.000000
 40
0.000000
 40
0.000000
 40
1.095436
 40
2.190871
 40
3.286306
 40
3.286306
 40
3.286306
 40
3.286306
 10
75.727415
 20
232.141780
 30
0.0
 10
75.727415
 20
232.506925
 30
0.0
 10
75.727415
 20
233.237215
 30
0.0
 10
75.727415
 20
234.332651
 30
0.0
 10
75.727415
 20
235.062940
 30
0.0
 10
75.727415
 20
235.428085
 30
0.0
 11
75.727415
 21
232.141780
 31
0.0
 11
75.727415
 21
233.237216
 31
0.0
 11
75.727415
 21
234.332651
 31
0.0
 11
75.727415
 21
235.428085
 31
0.0
  0
SPLINE
  5
17f
100
AcDbEntity
  8
Layer_1
 62
7
100
AcDbSpline
 70
0
 71
3
 72
10
 73
6
 74
4
 40
0.000000
 40
0.000000
 40
0.000000
 40
0.000000
 40
1.330521
 40
2.051194
 40
3.365800
 40
3.365800
 40
3.365800
 40
3.365800
 10
75.727415
 20
235.428085
 30
0.0
 10
75.343774
 20
235.025683
 30
0.0
 10
74.752334
 20
234.405320
 30
0.0
 10
73.736101
 20
235.572370
 30
0.0
 10
74.544127
 20
235.960657
 30
0.0
 10
75.066039
 20
236.211455
 30
0.0
 11
75.727415
 21
235.428085
 31
0.0
 11
74.564762
 21
234.781152
 31
0.0
 11
74.093784
 21
235.326633
 31
0.0
 11
75.066039
 21
236.211455
 31
0.0
  0
SPLINE
  5
180
100
AcDbEntity
  8
Layer_1
 62
7
100
AcDbSpline
 70
0
 71
3
 72
10
 73
6
 74
4
 40
0.000000
 40
0.000000
 40
0.000000
 40
0.000000
 40
1.056234
 40
1.886430
 40
2.887206
 40
2.887206
 40
2.887206
 40
2.887206
 10
75.066039
 20
236.211455
 30
0.0
 10
75.350635
 20
236.429713
 30
0.0
 10
75.858922
 20
236.819520
 30
0.0
 10
77.060861
 20
236.565079
 30
0.0
 10
76.928597
 20
235.855678
 30
0.0
 10
76.856304
 20
235.467932
 30
0.0
 11
75.066039
 21
236.211455
 31
0.0
 11
76.006676
 21
236.691905
 31
0.0
 11
76.805952
 21
236.467441
 31
0.0
 11
76.856304
 21
235.467932
 31
0.0
  0
SPLINE
  5
181
100
AcDbEntity
  8
Layer_1
 62
7
100
AcDbSpline
 70
0
 71
3
 72
10
 73
6
 74
4
 40
0.000000
 40
0.000000
 40
0.000000
 40
0.000000
 40
1.623830
 40
3.247661
 40
4.871491
 40
4.871491
 40
4.871491
 40
4.871491
 10
76.856304
 20
235.467932
 30
0.0
 10
76.856304
 20
234.926655
 30
0.0
 10
76.856304
 20
233.844102
 30
0.0
 10
76.856304
 20
232.220271
 30
0.0
 10
76.856304
 20
231.137718
 30
0.0
 10
76.856304
 20
230.596441
 30
0.0
 11
76.856304
 21
235.467932
 31
0.0
 11
76.856304
 21
233.844102
 31
0.0
 11
76.856304
 21
232.220271
 31
0.0
 11
76.856304
 21
230.596441
 31
0.0
  0
SPLINE
  5
182
100
AcDbEntity
  8
Layer_1
 62
7
100
AcDbSpline
 70
0
 71
3
 72
10
 73
6
 74
4
 40
0.000000
 40
0.000000
 40
0.000000
 40
0.000000
 40
1.342141
 40
2.162087
 40
3.420303
 40
3.420303
 40
3.420303
 40
3.420303
 10
76.856304
 20
230.596441
 30
0.0
 10
77.347237
 20
230.705274
 30
0.0
 10
78.138093
 20
230.880596
 30
0.0
 10
78.838978
 20
229.427598
 30
0.0
 10
77.886399
 20
229.452485
 30
0.0
 10
77.309663
 20
229.467552
 30
0.0
 11
76.856304
 21
230.596441
 31
0.0
 11
78.195079
 21
230.501446
 31
0.0
 11
78.534584
 21
229.755090
 31
0.0
 11
77.309663
 21
229.467552
 31
0.0
  0
LINE
  5
183
100
AcDbEntity
  8
Layer_1
 62
7
100
AcDbLine
 10
73.888738
 20
229.785052
 30
0.0
 11
73.842171
 21
230.031996
 31
0.0
  0
LINE
  5
184
100
AcDbEntity
  8
Layer_1
 62
7
100
AcDbLine
 10
73.842171
 20
230.031996
 30
0.0
 11
73.842171
 21
230.031996
 31
0.0
  0
LINE
  5
185
100
AcDbEntity
  8
Layer_1
 62
7
100
AcDbLine
 10
73.842171
 20
230.031996
 30
0.0
 11
73.842171
 21
230.031996
 31
0.0
  0
SPLINE
  5
186
100
AcDbEntity
  8
Layer_1
 62
7
100
AcDbSpline
 70
0
 71
3
 72
10
 73
6
 74
4
 40
0.000000
 40
0.000000
 40
0.000000
 40
0.000000
 40
1.175108
 40
2.363166
 40
3.472902
 40
3.472902
 40
3.472902
 40
3.472902
 10
77.309663
 20
229.467552
 30
0.0
 10
76.919199
 20
229.479257
 30
0.0
 10
76.133968
 20
229.502798
 30
0.0
 10
74.957934
 20
229.346961
 30
0.0
 10
74.236944
 20
229.642378
 30
0.0
 10
73.888738
 20
229.785052
 30
0.0
 11
77.309663
 21
229.467552
 31
0.0
 11
76.134559
 21
229.470627
 31
0.0
 11
74.946680
 21
229.449985
 31
0.0
 11
73.888738
 21
229.785052
 31
0.0
  0
ENDSEC
  0
SECTION
  2
OBJECTS
  0
DICTIONARY
  5
C
330
0
100
AcDbDictionary
  3
ACAD_GROUP
350
D
  3
ACAD_MLINESTYLE
350
17
  0
DICTIONARY
  5
D
330
C
100
AcDbDictionary
  0
DICTIONARY
  5
1A
330
C
100
AcDbDictionary
  0
DICTIONARY
  5
17
330
C
100
AcDbDictionary
  3
STANDARD
350
18
  0
DICTIONARY
  5
19
330
C
100
AcDbDictionary
  0
ENDSEC
  0
EOF
